<?xml version="1.0" standalone="no"?>
<!DOCTYPE svg PUBLIC "-//W3C//DTD SVG 1.1//EN" "http://www.w3.org/Graphics/SVG/1.1/DTD/svg11.dtd" >
<svg xmlns="http://www.w3.org/2000/svg" xmlns:xlink="http://www.w3.org/1999/xlink" version="1.1">
<metadata>
Created by FontForge 20150102 at Sun Feb 15 06:25:29 2015
 By uniteet7
Copyright (c) 1992, 2001 Adobe Systems Incorporated.  All Rights Reserved.
</metadata>
<defs>
<font id="tiepolostdbold" horiz-adv-x="574" >
  <font-face 
    font-family="tiepolostdbold"
    font-weight="700"
    font-stretch="normal"
    units-per-em="1000"
    panose-1="0 0 8 0 0 0 0 0 0 0"
    ascent="703"
    descent="-297"
    x-height="470"
    cap-height="614"
    bbox="-78 -295 1209 856"
    underline-thickness="50"
    underline-position="-50"
    unicode-range="U+0020-FB02"
  />
<missing-glyph horiz-adv-x="500" 
d="M0 0v700h500v-700h-500zM250 395l170 255h-340zM280 350l170 -255v510zM80 50h340l-170 255zM50 605v-510l170 255z" />
    <glyph glyph-name="fi" unicode="fi" horiz-adv-x="556" 
d="M423 510q-40 43 -77 69q46 40 74 79q28 -36 76 -76q-25 -22 -73 -72zM59 -4v6q28 9 33.5 46t5.5 182v182q-31 0 -63 -6q9 20 16 55q10 -1 24 -3q8 -1 23 -1q2 27 12 97q36 32 102 114q9 11 49.5 24.5t65.5 14.5q-16 -59 -16 -107q-20 7 -62 7q-25 0 -42 -5
q-4 -36 -4 -145h118q127 0 160 7q-10 -73 -10 -234q0 -145 5 -182t31 -46v-6q-40 4 -90 4q-51 0 -90 -4v6q28 4 33.5 43t5.5 185q0 168 -9 178q-4 4 -131 4h-23v-182q0 -145 5 -182t31 -46v-6q-40 4 -90 4q-51 0 -90 -4z" />
    <glyph glyph-name="fl" unicode="fl" horiz-adv-x="556" 
d="M329 -4v6q27 6 33 75t6 269q0 234 -3.5 286t-21.5 59v5q2 0 10 -1t22.5 -2t32.5 -1q48 0 75 7q-10 -117 -10 -353q0 -200 5.5 -269t30.5 -75v-6q-40 4 -90 4q-51 0 -90 -4zM59 -4v6q28 9 33.5 46t5.5 182v182q-31 0 -63 -6q9 20 16 55q10 -1 24 -3q8 -1 23 -1q2 27 12 97
q38 35 102 114q9 11 49.5 24.5t65.5 14.5q-16 -59 -16 -107q-20 7 -62 7q-33 0 -42 -5q-4 -30 -4 -145h22q60 0 90 4q-5 -12 -16 -55q-36 6 -73 6h-23v-182q0 -145 5 -182t31 -46v-6q-40 4 -90 4q-51 0 -90 -4z" />
    <glyph glyph-name=".notdef" horiz-adv-x="500" 
d="M0 0v700h500v-700h-500zM250 395l170 255h-340zM280 350l170 -255v510zM80 50h340l-170 255zM50 605v-510l170 255z" />
    <glyph glyph-name=".null" horiz-adv-x="0" 
 />
    <glyph glyph-name="nonmarkingreturn" horiz-adv-x="333" 
 />
    <glyph glyph-name="space" unicode=" " horiz-adv-x="278" 
 />
    <glyph glyph-name="exclam" unicode="!" horiz-adv-x="333" 
d="M157 -13q-46 61 -79 86q48 35 85 75q38 -53 75 -83q-31 -26 -81 -78zM116 623h13q75 0 112 13q0 -19 -9 -135t-12 -134q-3 -15 -24.5 -93t-25.5 -88q-3 0 -9 -0.5t-9 -0.5q-20 161 -25 227q-11 141 -11 211z" />
    <glyph glyph-name="quotedbl" unicode="&#x22;" horiz-adv-x="463" 
d="M135 336l-32 274h97l-32 -274h-33zM295 336l-32 274h97l-32 -274h-33z" />
    <glyph glyph-name="numbersign" unicode="#" 
d="M63 0l55 181h-143q6 16 18 60h143l39 127h-143q13 37 18 60h143l55 179q6 0 18 -0.5t18 -0.5t18 0.5t19 0.5l-55 -179h132l54 179q6 0 18 -0.5t18 -0.5t18.5 0.5t18.5 0.5l-54 -179h142q-9 -25 -18 -60h-143l-38 -127h143q-12 -32 -18 -60h-144l-55 -181q-12 1 -36 1
t-37 -1l55 181h-131l-55 -181q-12 1 -36 1q-25 0 -37 -1zM248 368l-39 -127h132l38 127h-131z" />
    <glyph glyph-name="dollar" unicode="$" 
d="M271 -72v63q-83 0 -191 23q8 32 8 76q0 47 -4 88l18 1q31 -135 169 -148v226q-5 2 -35.5 13t-45 17.5t-41 23t-40 33t-25 44t-11.5 60.5q0 46 24 80.5t59 51t64.5 24t50.5 7.5v55q12 -2 19 -2q14 0 20 2v-55q43 0 87.5 -5t47.5 -5q11 0 20 3q-9 -36 -9 -73q0 -19 3 -76
l-18 -2q-2 45 -43 80t-88 38v-217q5 -4 39 -17t67.5 -28.5t61.5 -49t28 -76.5q0 -45 -22.5 -83.5t-55 -61t-64 -34.5t-54.5 -12v-64q-3 0 -10.5 0.5t-9.5 0.5q-19 0 -19 -1zM271 371v200q-36 0 -64.5 -18.5t-28.5 -63.5q0 -33 14.5 -57t31.5 -35.5t47 -25.5zM310 243v-211
q38 0 64.5 22.5t26.5 70.5q0 27 -7 47t-23.5 34t-26.5 20t-34 17z" />
    <glyph glyph-name="percent" unicode="%" horiz-adv-x="963" 
d="M619 177q0 -81 22 -115.5t71 -34.5q24 0 35 10q24 22 24 122q0 84 -19 124.5t-66 40.5q-30 0 -41 -15t-18.5 -55.5t-7.5 -76.5zM254 -13l397 618h58l-397 -618h-58zM190 423q0 -81 22 -115.5t71 -34.5q24 0 35 10q24 22 24 122q0 84 -19 124.5t-66 40.5q-31 0 -41 -15
q-11 -15 -18.5 -55.5t-7.5 -76.5zM675 -13q-63 0 -97 40q-34 39 -34 124q0 39 9.5 85.5t31.5 68.5q21 21 58 37.5t76 16.5q34 0 58.5 -10.5t37.5 -25.5t20.5 -40t9 -45.5t1.5 -50.5q0 -115 -62 -162q-51 -38 -109 -38zM246 233q-63 0 -97 40q-34 39 -34 124q0 39 9.5 85.5
t31.5 68.5q21 21 58 37.5t76 16.5q34 0 58.5 -10.5t37.5 -25.5t20.5 -40t9 -45.5t1.5 -50.5q0 -115 -62 -162q-51 -38 -109 -38z" />
    <glyph glyph-name="ampersand" unicode="&#x26;" horiz-adv-x="704" 
d="M524 413v7q29 -5 69 -5q48 0 73 6q-16 -71 -37.5 -122.5t-64.5 -114.5q16 -33 25 -88.5t14 -64.5q6 -12 12 -18.5t10.5 -8t12.5 -2.5v-6q-36 4 -81 4t-78 -4q0 50 -5 89q-79 -71 -94 -79q-17 -9 -55 -14t-53 -5q-105 0 -162.5 49.5t-57.5 128.5q0 132 157 177v2
q-109 36 -109 130q0 74 59.5 111.5t141.5 37.5q16 0 33 -2t50 -11t54 -33.5t21 -62.5q0 -32 -13.5 -58.5t-36 -42t-40.5 -24.5t-36 -14v-2q84 -21 134.5 -59.5t80.5 -100.5q20 46 20 113q0 39 -9.5 58t-34.5 29zM467 118q-13 87 -64 128.5t-161 78.5q-15 -8 -23 -13.5
t-24.5 -20t-24.5 -36t-8 -49.5q0 -63 44.5 -106t109.5 -43q90 0 151 61zM302 386q71 37 71 104q0 36 -20 69t-67 33q-39 0 -61.5 -23t-22.5 -59q0 -50 33 -81.5t67 -42.5z" />
    <glyph glyph-name="quotesingle" unicode="'" horiz-adv-x="278" 
d="M123 336l-33 274h98l-33 -274h-32z" />
    <glyph glyph-name="parenleft" unicode="(" horiz-adv-x="333" 
d="M307 -87q-33 11 -63 29t-63 51t-57 75.5t-40 106.5t-16 140q0 75 15.5 138t39.5 105t57 74.5t63.5 50t63.5 28.5q3 -6 9 -15q-28 -14 -58.5 -53.5t-49.5 -92.5q-30 -80 -30 -235q0 -159 30 -241q19 -53 49.5 -92.5t58.5 -53.5q-4 -6 -9 -15z" />
    <glyph glyph-name="parenright" unicode=")" horiz-adv-x="333" 
d="M25 -87q-6 12 -9 15q29 14 59 53.5t49 92.5q31 89 31 241q0 144 -31 235q-19 53 -49 92.5t-59 53.5q5 5 9 15q42 -14 80 -40t76 -71t61 -118.5t23 -166.5q0 -76 -16 -140t-40 -106.5t-57 -75.5t-63.5 -51t-63.5 -29z" />
    <glyph glyph-name="asterisk" unicode="*" 
d="M249 323q14 66 14 118q-47 -32 -89 -77q-18 35 -39 66q62 21 107 45q-41 23 -102 43q25 29 43 65q30 -34 80 -72q0 38 -14 112q11 -2 35 -2q25 0 36 2q-14 -74 -14 -112q50 38 80 72q18 -36 43 -65q-59 -19 -102 -43q45 -24 107 -45q-21 -31 -39 -66q-42 45 -89 77
q0 -52 14 -118q-33 3 -35 3q-3 0 -36 -3z" />
    <glyph glyph-name="plus" unicode="+" horiz-adv-x="963" 
d="M442 -4q0 20 2 103.5t2 93.5q-140 0 -195 -6q1 13 1 40q0 7 -0.5 21t-0.5 20q46 -5 195 -5q0 10 -2 93t-2 103q13 -1 39 -1q27 0 40 1q0 -18 -2.5 -103t-2.5 -93q150 0 195 5q0 -5 -0.5 -19.5t-0.5 -21.5t0.5 -21t0.5 -19q-54 6 -195 6q0 -9 2.5 -94.5t2.5 -102.5
q-26 2 -40 2q-13 0 -39 -2z" />
    <glyph glyph-name="comma" unicode="," horiz-adv-x="278" 
d="M74 -129q-4 6 -15 17q61 44 61 91q0 54 -55 90q64 41 97 76l6 -6q5 -6 7.5 -9.5l7.5 -10.5t8 -14t6.5 -16t5 -19.5t1.5 -21.5q0 -70 -77 -137q-26 -22 -53 -40z" />
    <glyph glyph-name="hyphen" unicode="-" horiz-adv-x="426" 
d="M269 223h-73q-97 0 -153 -8q20 35 31 88q27 -6 122 -10h73q61 0 113 8q-23 -39 -33 -83q-68 5 -80 5z" />
    <glyph glyph-name="period" unicode="." horiz-adv-x="278" 
d="M142 -13q-37 42 -86 78q45 38 85 86q42 -47 82 -76q-61 -61 -81 -88z" />
    <glyph glyph-name="slash" unicode="/" horiz-adv-x="407" 
d="M1 -64l354 760h58l-354 -760h-58z" />
    <glyph glyph-name="zero" unicode="0" 
d="M262 -13q-109 0 -162 64q-55 66 -55 202q0 77 16.5 153.5t48.5 109.5q34 36 92 62.5t126 26.5q110 0 155 -64t45 -221q0 -198 -101 -271q-44 -31 -80 -46.5t-85 -15.5zM155 304q0 -140 37 -201t122 -61q44 0 62 16q18 17 30 76.5t12 137.5q0 144 -33 216t-114 72
q-42 0 -71 -24q-23 -19 -34 -93t-11 -139z" />
    <glyph glyph-name="one" unicode="1" 
d="M187 -4v6q31 5 38 43t7 202q0 259 -9 283q-7 18 -36 18h-10q1 3 1 11q0 7 -1 10q90 3 168 42q0 -4 -1 -14.5t-2 -33.5t-2 -59.5t-2 -103.5t-1 -153q0 -152 6.5 -196.5t37.5 -48.5v-6q-44 4 -99 4q-54 0 -95 -4z" />
    <glyph glyph-name="two" unicode="2" 
d="M183 79h138q103 0 124 13q20 13 30 54q10 -5 20 -5q-22 -77 -28 -154q-24 7 -73 10q-48 3 -129 3q-109 0 -213 -4q72 63 180 189q79 93 101 132q30 53 30 99q0 49 -32.5 76.5t-88.5 27.5q-87 0 -126 -63q-6 5 -18 13q46 54 66 116q71 19 122 19q82 0 132 -40t50 -115
q0 -33 -9.5 -63.5t-30 -58t-36 -45t-44 -44.5t-38.5 -37q-14 -14 -58 -55.5t-69 -67.5z" />
    <glyph glyph-name="three" unicode="3" 
d="M119 473l-14 16q37 36 68 101q49 15 100 15q23 0 48.5 -4.5t57.5 -17t52.5 -41.5t20.5 -70q0 -101 -131 -156v-2q45 -3 80.5 -15t62 -43.5t26.5 -79.5q0 -60 -41.5 -104.5t-97.5 -64.5t-113 -20q-112 0 -186 57q28 28 39 42t23 43q33 -42 71 -67q46 -30 93 -30
q43 0 69 24q16 15 27 42t11 52q0 42 -15 72t-38.5 44t-44 20t-38.5 6q-15 0 -41 -6q7 16 9 36q18 -2 28 -2q45 0 70 25q32 32 32 85q0 29 -12 50t-31 30.5t-34.5 13t-30.5 3.5q-76 0 -120 -54z" />
    <glyph glyph-name="four" unicode="4" 
d="M280 -4v6q43 0 43 113v103q-177 0 -263 -2q-7 19 -21 45q31 35 154 166q130 140 150 169q21 -4 44 -4q34 0 51 4q-10 -115 -10 -317q73 0 98 4q-12 -26 -25 -69q-19 2 -73 4v-103q0 -60 6.5 -85t23.5 -28v-6q-40 4 -90 4q-16 0 -47 -2t-41 -2zM118 279h205v238
q-25 -27 -106 -121t-99 -117z" />
    <glyph glyph-name="five" unicode="5" 
d="M424 507h-250q-6 -84 -6 -139q73 11 124 11q97 0 149 -40t52 -116q0 -59 -20.5 -97.5t-64.5 -72.5q-84 -66 -198 -66q-85 0 -148 42q35 41 57 91q63 -78 159 -78q42 0 68 16q15 9 28.5 42t13.5 73q0 151 -174 151q-42 0 -92 -12q5 23 11 101t6 150v33q54 -4 110 -4
q116 0 156 4q32 3 52 11q-24 -52 -33 -100z" />
    <glyph glyph-name="six" unicode="6" 
d="M471 637l7 -25q-127 -37 -189.5 -97.5t-92.5 -164.5l2 -2q2 2 26 20.5t34.5 24.5t36.5 14t55 8q28 0 53 -7t52.5 -24.5t44 -56.5t16.5 -95q0 -66 -18 -103t-53 -72q-38 -36 -92 -53t-95 -17q-92 0 -142.5 58.5t-50.5 174.5q0 63 15.5 117t39.5 92.5t60.5 71.5t70.5 53.5
t78 38t74.5 26.5t67.5 18zM224 74q40 -37 95 -37q36 0 56 17q36 30 36 137q0 23 -4 45t-15.5 50.5t-39 46t-68.5 17.5q-16 0 -47.5 -11.5t-44.5 -27.5q-12 -29 -12 -86q0 -48 12 -90.5t32 -60.5z" />
    <glyph glyph-name="seven" unicode="7" 
d="M118 448l-19 9q34 80 40 148q47 -13 206 -13q135 0 168 13q-145 -243 -232 -609q-24 4 -58 4t-62 -4q33 78 125 259.5t134 251.5h-163q-54 0 -80 -6t-36 -16t-23 -37z" />
    <glyph glyph-name="eight" unicode="8" 
d="M249 -13q-28 0 -53 3.5t-50.5 14t-43.5 27t-29.5 43.5t-11.5 62q0 44 21.5 80.5t54.5 53.5q17 9 50.5 19.5t34.5 11.5q-128 33 -128 141q0 72 51 108q76 54 172 54q159 0 159 -119q0 -43 -24 -78.5t-48.5 -51.5t-47.5 -24v-2q27 -8 42 -13.5t40.5 -18.5t39 -27.5
t24.5 -39t11 -54.5q0 -46 -21.5 -76t-60.5 -55q-95 -59 -182 -59zM201 72q42 -30 108 -30q49 0 74 18q25 17 25 83q0 27 -10.5 49t-24 36t-37 27t-37 18.5t-36.5 13.5q-19 -5 -33.5 -12.5t-30.5 -21.5t-24.5 -37.5t-8.5 -55.5q0 -63 35 -88zM223 392q18 -21 100 -51
q58 30 58 113q0 46 -29 76t-81 30q-33 0 -53 -12q-29 -17 -29 -72q0 -45 34 -84z" />
    <glyph glyph-name="nine" unicode="9" 
d="M155 -39l-15 23q102 57 158 124.5t80 153.5l-2 2q-8 -6 -34 -25t-34 -26q-26 -8 -61 -8q-83 0 -133 46.5t-50 139.5q0 50 17 89t45.5 61t57 36.5t60.5 19.5t46 6.5t23 1.5q197 0 197 -196q0 -65 -28 -142.5t-81 -132.5q-98 -101 -246 -173zM400 382q0 178 -140 178
q-41 0 -58 -16q-17 -15 -25 -52t-8 -58q0 -84 34.5 -126.5t92.5 -42.5q64 0 88 47q16 30 16 70z" />
    <glyph glyph-name="colon" unicode=":" horiz-adv-x="278" 
d="M139 -13q-45 59 -79 86q48 35 85 75q38 -53 75 -83q-41 -33 -81 -78zM139 310q-45 59 -79 85q48 35 85 75q36 -49 75 -83q-36 -30 -81 -77z" />
    <glyph glyph-name="semicolon" unicode=";" horiz-adv-x="278" 
d="M162 146l6 -6q5 -6 7.5 -9.5l7.5 -10.5t8 -14t6.5 -16t5 -19.5t1.5 -21.5q0 -70 -77 -137q-26 -22 -53 -40q-4 6 -15 17q61 44 61 91q0 54 -55 90q64 41 97 76zM139 310q-45 59 -79 85q48 35 85 75q36 -49 75 -83q-36 -30 -81 -77z" />
    <glyph glyph-name="less" unicode="&#x3c;" horiz-adv-x="963" 
d="M724 -15l-486 216v54l486 215v-77l-387 -165l387 -166v-77z" />
    <glyph glyph-name="equal" unicode="=" horiz-adv-x="963" 
d="M516 269h-70q-140 0 -195 -6q1 13 1 40q0 7 -0.5 21t-0.5 20q46 -5 195 -5h70q155 0 195 5q0 -5 -0.5 -19.5t-0.5 -21.5t0.5 -21t0.5 -19q-47 6 -195 6zM516 120h-70q-140 0 -195 -6q1 13 1 40q0 6 -0.5 20t-0.5 21q46 -5 195 -5h70q155 0 195 5q0 -5 -0.5 -19.5
t-0.5 -21.5t0.5 -21t0.5 -19q-47 6 -195 6z" />
    <glyph glyph-name="greater" unicode="&#x3e;" horiz-adv-x="963" 
d="M238 -15v77l387 166l-387 165v77l486 -215v-54z" />
    <glyph glyph-name="question" unicode="?" horiz-adv-x="389" 
d="M186 166l-9 9t-12.5 12t-12 14t-11.5 18.5t-7.5 20.5t-3.5 24q0 37 26 76.5t52 75t26 63.5q0 35 -23.5 53.5t-63.5 18.5q-32 0 -62.5 -14.5t-43.5 -29.5q-2 3 -8 7q14 16 35.5 50.5t32.5 60.5q80 16 118 16q60 0 97.5 -34t37.5 -94q0 -41 -19.5 -72.5t-63 -68.5
t-52.5 -47q-46 -49 -46 -95q0 -28 26 -54q-7 -2 -13 -10zM164 -13q-46 61 -79 86q48 35 85 75q38 -53 75 -83q-41 -33 -81 -78z" />
    <glyph glyph-name="at" unicode="@" horiz-adv-x="1000" 
d="M804 15l26 -23q-32 -36 -122 -80t-201 -44q-179 0 -295.5 92.5t-116.5 238.5q0 178 134 312t314 134q154 0 258 -91t104 -233q0 -131 -86.5 -225.5t-194.5 -94.5q-70 0 -73 71q-56 -65 -130 -65q-57 0 -94.5 37.5t-37.5 105.5q0 72 37 148.5t97.5 128t123.5 51.5
q29 0 50.5 -8t36 -23.5t18.5 -22.5l12 -21l22 54h86l-83 -207q-61 -149 -61 -170q0 -27 30 -27q65 0 132.5 76t67.5 192q0 125 -90.5 199t-220.5 74q-95 0 -184.5 -57t-144.5 -149t-55 -188q0 -125 95 -206t253 -81q171 0 289 99q3 2 4 3zM368 115q0 -68 70 -68q11 0 22 3
t19 6.5t17 11t14 12t12.5 15t9.5 14t8 13.5l7 11q38 61 61 136.5t23 104.5q0 25 -16.5 44.5t-45.5 19.5q-45 0 -93.5 -61.5t-78 -137t-29.5 -124.5z" />
    <glyph glyph-name="A" unicode="A" horiz-adv-x="667" 
d="M594 68q30 -63 56 -66v-6q-31 4 -88 4q-46 0 -78 -4q-18 69 -83 251q-35 3 -95 3q-62 0 -97 -3q-12 -29 -37 -108t-25 -102q0 -28 27 -35v-6q-30 4 -86 4q-40 0 -72 -4v6q24 7 65 81q26 46 49.5 98.5t55.5 135t43 108.5q48 116 48 148q0 21 -21 35v6l12 -1
q11 -1 27.5 -1.5t30.5 -0.5q34 0 68 3q18 -72 46 -153q88 -255 154 -393zM387 288q-4 10 -40.5 110.5t-42.5 115.5q-75 -207 -81 -226q23 -3 82 -3t82 3z" />
    <glyph glyph-name="B" unicode="B" horiz-adv-x="593" 
d="M553 186q0 -53 -27.5 -94t-70 -62.5t-84.5 -32t-81 -10.5q-54 0 -99 7q-52 6 -76 6q-49 0 -71 -4v6q33 3 40 62.5t7 241.5q0 181 -7 240t-40 62v6q19 -3 36 -3q11 -1 35 -1q51 0 110 7q66 6 85 6q91 0 138 -27.5t47 -94.5q0 -95 -128 -162v-2q186 -18 186 -151zM331 343
l6 5q6 6 8 8.5t8 9.5t9 11.5t8.5 12.5t8 15.5t5.5 17t4.5 20t1.5 21.5q0 56 -35 87.5t-92 31.5q-32 0 -60 -10q0 -8 -1 -103.5t-1 -126.5h130zM433 156q0 66 -42.5 109t-125.5 43q-12 0 -34 -2.5t-30 -2.5q0 -155 7 -239q56 -37 118 -37q57 0 82 29t25 100z" />
    <glyph glyph-name="C" unicode="C" horiz-adv-x="611" 
d="M533 443h-21q0 40 -14.5 64.5t-49.5 37.5q-50 18 -118 18q-64 0 -95 -18q-35 -21 -54 -79.5t-19 -104.5q0 -274 245 -274q77 0 139 45q4 3 11 9.5t11 9.5q6 -10 14 -20q-40 -34 -63.5 -61t-51.5 -70q-45 -13 -100 -13q-150 0 -237.5 85t-87.5 230q0 65 20.5 118t54 86.5
t72.5 58t82 36.5t75 17t58 5q49 0 97 -8t50 -8h16q-12 -23 -23.5 -65t-11.5 -77q0 -3 0.5 -10.5t0.5 -11.5z" />
    <glyph glyph-name="D" unicode="D" horiz-adv-x="722" 
d="M674 349q0 -151 -109 -256.5t-276 -105.5q-21 0 -80 7q-66 6 -86 6q-50 0 -75 -4v6q33 3 40 62.5t7 241.5q0 181 -7 240t-40 62v6q22 -3 38 -3q12 -1 37 -1q49 0 122 7q82 6 112 6q50 0 91.5 -6t85 -23.5t73 -46.5t48.5 -79.5t19 -118.5zM503 106q18 23 34.5 76t16.5 121
q0 134 -67.5 207t-179.5 73q-44 0 -97 -15q-5 -82 -5 -262q0 -61 2.5 -146t2.5 -88q52 -30 141 -30q45 0 77.5 10.5t46 22t28.5 31.5z" />
    <glyph glyph-name="E" unicode="E" 
d="M47 608v6q30 -3 53 -3q17 -1 50 -1q302 0 356 13q-16 -69 -16 -122v-20h-17q0 95 -187 95q-32 0 -74 -5q-7 -115 -7 -226q28 -4 64 -4q86 0 114 15t31 51h16q-8 -68 -8 -102q0 -14 1 -43t1 -30h-17q0 34 -27.5 54t-110.5 20q-42 0 -64 -1q0 -188 2 -261q28 -5 76 -5
q76 0 127 14.5t73.5 34.5t36.5 50l15 -7q-37 -81 -49 -144q-20 9 -122 11q-61 2 -214 2q-64 0 -103 -4v6q33 3 40.5 62.5t7.5 241.5q0 181 -7.5 240t-40.5 62z" />
    <glyph glyph-name="F" unicode="F" horiz-adv-x="519" 
d="M50 -4v6q33 3 40 62.5t7 241.5q0 181 -7 240t-40 62v6q30 -3 53 -3q17 -1 50 -1q282 0 336 11q-16 -69 -16 -121v-20h-17q0 96 -169 96q-33 0 -73 -5q-7 -84 -7 -252q32 -3 64 -3q86 0 114 15t30 51h17q-8 -68 -8 -102q0 -15 1 -43.5t1 -29.5h-17q-2 18 -6 28.5t-17 22.5
t-41.5 17.5t-73.5 5.5q-43 0 -64 -2v-107q0 -33 1 -53.5t5 -52t15 -48t28 -16.5v-6q-35 4 -103 4q-64 0 -103 -4z" />
    <glyph glyph-name="G" unicode="G" horiz-adv-x="704" 
d="M660 290v-6q-27 -5 -34 -36t-7 -95q0 -69 6 -138q-128 -28 -242 -28q-167 0 -250.5 82t-83.5 237q0 49 12.5 91.5t25.5 66t37 46.5t30.5 27t22.5 14q116 72 223 72q81 0 131 -9q11 -2 24.5 -4t21.5 -3.5t15 -1.5q15 0 33 6q-22 -75 -22 -149v-19h-21q0 30 -15.5 52.5
t-42 35.5t-52.5 21.5t-55.5 11.5t-41.5 3.5t-21 0.5q-72 0 -108 -25q-39 -22 -58 -81t-19 -126q0 -138 71 -223.5t191 -85.5q43 0 75 14q3 25 3 120q0 51 -4.5 76.5t-12.5 34t-25 12.5v6q42 -4 99 -4q54 0 94 4z" />
    <glyph glyph-name="H" unicode="H" horiz-adv-x="704" 
d="M46 -4v6q33 3 40 62.5t7 241.5q0 181 -7 240t-40 62v6q39 -4 103 -4q69 0 103 4v-6q-33 -3 -41 -54.5t-8 -200.5q49 -6 147 -6q99 0 149 6q0 149 -7.5 200.5t-39.5 54.5v6q39 -4 103 -4q69 0 103 4v-6q-34 -3 -41.5 -62.5t-7.5 -239.5q0 -182 7.5 -241.5t41.5 -62.5v-6
q-34 4 -103 4q-64 0 -103 -4v6q33 3 40 62.5t7 244.5q-50 3 -149 3q-98 0 -147 -3q0 -183 7.5 -243.5t41.5 -63.5v-6q-34 4 -103 4q-64 0 -103 -4z" />
    <glyph glyph-name="I" unicode="I" horiz-adv-x="296" 
d="M45 -4v6q33 3 40 62.5t7 241.5q0 181 -7 240t-40 62v6q39 -4 103 -4q69 0 103 4v-6q-34 -3 -41.5 -62.5t-7.5 -239.5q0 -182 7.5 -241.5t41.5 -62.5v-6q-34 4 -103 4q-64 0 -103 -4z" />
    <glyph glyph-name="J" unicode="J" horiz-adv-x="296" 
d="M216 -22v-22q-16 -10 -38 -21t-58.5 -28.5t-66.5 -32.5q-4 -2 -12 -6.5t-12 -6.5q-12 18 -26 30q22 2 41 13q39 21 48 105.5t9 296.5q0 181 -7 240t-40 62v6q39 -4 103 -4q69 0 103 4v-6q-34 -3 -41.5 -62.5t-7.5 -239.5q0 -63 2.5 -177t2.5 -151z" />
    <glyph glyph-name="K" unicode="K" horiz-adv-x="667" 
d="M47 -4v6q33 3 40 62.5t7 241.5q0 181 -7 240t-40 62v6q39 -4 103 -4q69 0 103 4v-6q-34 -3 -41.5 -64t-7.5 -247q54 41 158.5 146t104.5 143q0 16 -19 22v6q51 -4 121 -4q47 0 83 4v-6q-25 -10 -140 -105l-175 -146l98 -134q160 -221 216 -221v-6q-33 4 -99 4
q-17 0 -47 -2t-40 -2q-32 43 -83 115l-129 183q-29 -19 -49 -37q0 -143 9 -198t40 -57v-6q-34 4 -103 4q-64 0 -103 -4z" />
    <glyph glyph-name="L" unicode="L" horiz-adv-x="500" 
d="M250 614v-6q-34 -3 -41.5 -62.5t-7.5 -239.5q0 -52 3 -156t3 -106q32 -5 46 -5q43 0 81.5 10t73 39t44.5 74l18 -5q-30 -95 -30 -170q-16 9 -106 11q-54 2 -187 2q-64 0 -103 -4v6q33 3 40 62.5t7 241.5q0 181 -7 240t-40 62v6q39 -4 103 -4q69 0 103 4z" />
    <glyph glyph-name="M" unicode="M" horiz-adv-x="852" 
d="M24 -4v6q13 3 24 16q15 17 30.5 205t15.5 279q0 61 -9.5 80t-30.5 26v6q36 -5 89 -5q51 0 82 5q36 -118 214 -485q41 84 121 261.5t94 223.5q9 0 36 -2t42 -2q17 0 47.5 2t40.5 2v-6q-33 -6 -40 -62t-7 -241q0 -90 1 -130.5t5 -89t14 -66t27 -17.5v-6q-47 4 -104 4
q-56 0 -101 -4v6q33 0 40.5 59t7.5 227v241h-2q-5 -10 -65.5 -151t-87.5 -199q-63 -139 -78 -183q-12 4 -29 4q-19 0 -34 -4q-9 26 -91.5 206t-105.5 234l-34 86h-2v-234q0 -72 4.5 -162t11.5 -102q11 -20 32 -22v-6q-37 4 -84 4q-41 0 -74 -4z" />
    <glyph glyph-name="N" unicode="N" horiz-adv-x="741" 
d="M47 -4v6q22 3 34 23q17 26 27 191.5t10 255.5q0 39 -7 60q-3 8 -36 41.5t-49 34.5v6q40 -4 90 -4q52 0 93 4q85 -146 388 -483v124q0 249 -23 317q-13 30 -35 36v6q40 -4 93 -4q49 0 73 4v-6q-22 -5 -33 -30q-14 -33 -24.5 -195.5t-10.5 -330.5v-56q-13 4 -40 4
q-18 0 -33 -4q-382 451 -404 481h-2v-35q0 -34 1.5 -101.5t7.5 -170t15 -138.5q6 -26 31 -30v-6q-37 4 -84 4q-46 0 -82 -4z" />
    <glyph glyph-name="O" unicode="O" horiz-adv-x="722" 
d="M315 -13q-124 0 -195 82t-71 235q0 49 17.5 112t48.5 102q16 21 118.5 63t180.5 42q53 0 96.5 -13.5t81.5 -44t59.5 -88t21.5 -137.5q0 -78 -25 -141.5t-63.5 -101.5t-87.5 -64t-94.5 -36t-87.5 -10zM169 344q0 -146 62.5 -216.5t158.5 -70.5q79 0 112 27q24 19 37.5 77
t13.5 133q0 140 -52 204.5t-172 64.5q-25 0 -59 -9.5t-46 -22.5q-21 -23 -38 -76.5t-17 -110.5z" />
    <glyph glyph-name="P" unicode="P" horiz-adv-x="593" 
d="M48 -4v6q33 3 40 62.5t7 241.5q0 181 -7 240t-40 62v6q24 -3 43 -3q14 -1 41 -1q58 0 130 7q84 6 100 6q191 0 191 -161q0 -61 -26.5 -106.5t-70 -69.5t-90.5 -35.5t-96 -11.5q-25 0 -65 4q0 -136 8 -188.5t41 -52.5v-6q-48 4 -103 4q-64 0 -103 -4zM205 291
q45 -12 92 -12q69 0 102.5 38t33.5 101q0 165 -166 165q-34 0 -56 -7q-6 -25 -6 -285z" />
    <glyph glyph-name="Q" unicode="Q" horiz-adv-x="722" 
d="M909 -128v-10q-72 -23 -142 -23q-57 0 -113.5 17.5t-100 45.5t-74 53.5t-51.5 50.5q-59 -19 -114 -19q-92 0 -154 45.5t-87 112t-25 147.5q0 68 22.5 138.5t70.5 105.5q33 22 123 54.5t154 32.5q16 0 31.5 -1t43 -7.5t50 -17t48 -32t43 -50.5t29 -74t11.5 -101
q0 -188 -141 -285q17 -10 71.5 -52t94.5 -68q100 -64 188 -64q4 0 12 0.5t10 0.5zM168 336q0 -143 63 -216t169 -73q75 0 110 35q44 44 44 222q0 117 -50.5 188t-160.5 71q-70 0 -112 -26q-23 -14 -43 -74.5t-20 -126.5z" />
    <glyph glyph-name="R" unicode="R" horiz-adv-x="630" 
d="M48 -4v6q33 3 40 62.5t7 241.5q0 181 -7 240t-40 62v6q24 -3 43 -3q13 -1 41 -1q41 0 90 7q58 6 108 6q202 0 202 -152q0 -65 -45 -110t-114 -65q2 -3 17 -25t30.5 -44.5t39 -54.5t43.5 -59q84 -111 111 -111v-6q-28 4 -86 4q-52 0 -76 -4l-105 161q-40 62 -65 87.5
t-57 25.5h-20q0 -80 1 -115.5t5 -78.5t14.5 -58.5t28.5 -15.5v-6q-47 4 -103 4q-64 0 -103 -4zM205 310q43 -5 56 -5q84 0 117.5 31.5t33.5 94.5q0 152 -145 152q-29 0 -56 -6q-6 -32 -6 -267z" />
    <glyph glyph-name="S" unicode="S" horiz-adv-x="519" 
d="M446 460l-19 -1q0 44 -44 84t-124 40q-99 0 -99 -88q0 -13 2.5 -25t9 -22.5t11.5 -18.5t17.5 -17t18 -13.5t22.5 -13t21.5 -11t24 -11.5t22.5 -10q52 -24 79 -38.5t53 -35.5t35.5 -44.5t9.5 -55.5q0 -29 -13.5 -60t-40 -61.5t-76.5 -50.5t-114 -20q-73 0 -196 28
q9 52 9 106q0 21 -3 60l19 1q2 -60 58.5 -107.5t139.5 -47.5q107 0 107 100q0 32 -11 54t-34 36.5t-46 24.5t-60 25t-63 29q-59 32 -85.5 69t-26.5 91q0 80 67 123.5t171 43.5q36 0 90 -8q42 -6 56 -6q9 0 21 2q-13 -43 -13 -94q0 -32 4 -57z" />
    <glyph glyph-name="T" unicode="T" horiz-adv-x="630" 
d="M212 -4v6q33 3 40 62.5t7 241.5q0 229 -6 259q-9 1 -27 1q-78 0 -125 -28q-38 -24 -50 -76l-20 3q22 81 22 158q5 -6 57 -9q56 -4 227 -4q217 0 262 12q-20 -78 -20 -156h-21v22q0 50 -34 64t-121 14q-11 0 -25 -2q-9 -140 -9 -258q0 -182 7.5 -241.5t41.5 -62.5v-6
q-34 4 -103 4q-64 0 -103 -4z" />
    <glyph glyph-name="U" unicode="U" horiz-adv-x="741" 
d="M520 -13v109q-17 -11 -46 -34.5t-51.5 -41.5t-26.5 -20q-34 -13 -103 -13q-107 0 -152 51t-45 148q0 47 3.5 154t3.5 156q0 57 -7.5 82t-33.5 30v6q16 -1 51 -2.5t40 -1.5q46 0 71 4q-6 -28 -12 -147.5t-6 -182.5q0 -140 34 -171q42 -41 115 -41q58 0 106.5 24.5
t57.5 41.5t9 198q0 171 -6.5 218.5t-38.5 53.5v6q41 -4 93 -4q44 0 80 4q-18 -111 -18 -391q0 -60 1 -89t5 -65.5t14 -51.5t27 -15v-6h-26q-91 0 -139 -9z" />
    <glyph glyph-name="V" unicode="V" horiz-adv-x="704" 
d="M691 614v-6q-7 -1 -14 -6t-14 -13.5t-12 -16.5t-11.5 -20.5t-9.5 -20t-9 -21t-8 -17.5q-135 -306 -162 -372q-7 -17 -25.5 -59.5t-27.5 -65.5q-20 4 -47 4q-30 0 -54 -4q-39 106 -71 190q-20 52 -58.5 147.5t-46.5 115.5q-17 42 -25.5 61.5t-21.5 46t-25 38t-25 13.5v6
q51 -4 116 -4q57 0 97 4v-6q-25 -6 -25 -34q0 -31 53 -177q25 -69 125 -316q40 96 83 214q74 200 74 271q0 35 -28 42v6q9 0 37 -2t49 -2q49 0 86 4z" />
    <glyph glyph-name="W" unicode="W" horiz-adv-x="1037" 
d="M1019 614v-6q-17 -6 -30 -24q-12 -17 -32.5 -69.5t-44 -121.5t-31.5 -89q-54 -139 -104 -308q-20 4 -46 4q-30 0 -54 -4q-9 36 -92 269q-13 38 -31.5 87.5t-29.5 79.5t-14 40h-2q-7 -27 -116 -336q-40 -114 -48 -140q-23 4 -51 4q-30 0 -51 -4q-22 90 -82 277
q-15 45 -32 99.5t-26 83.5t-19 58.5t-16.5 45t-12.5 22.5q-16 21 -34 26v6q47 -4 108 -4q55 0 99 4v-6q-29 -5 -29 -32q0 -8 1 -18.5t4 -24.5t5 -24.5t7.5 -30t8.5 -30t10 -34.5t10 -34t11.5 -38t11.5 -37q44 -144 66 -217h2q73 212 78 229q6 18 17 52t17 52.5t13.5 43.5
t10.5 42t3 29q0 26 -13.5 45.5t-33.5 26.5v6q48 -4 107 -4q60 0 103 4v-6q-1 0 -5 -1.5t-5.5 -2t-5 -2t-5 -2.5t-4 -3.5t-3.5 -5t-2 -6t-1 -7.5q0 -16 7.5 -43t27 -84.5t30.5 -91.5q12 -40 28 -84.5t36.5 -101t30.5 -85.5h2q51 177 59 209q51 192 51 259q0 29 -8 38t-29 14
v6q8 0 39 -2t57 -2q49 0 82 4z" />
    <glyph glyph-name="X" unicode="X" horiz-adv-x="722" 
d="M29 -4v6q18 3 48 33.5t98 108.5q21 24 66.5 74t66.5 74l-96 123q-127 162 -130 165q-18 20 -40 28v6q48 -4 109 -4q29 0 121 4v-6q-23 -6 -23 -22q0 -24 42 -82l95 -133q41 54 82.5 121.5t41.5 89.5q0 5 -1.5 9t-3 6.5t-5.5 4.5t-5.5 2.5t-6.5 2t-6 1.5v6q37 -4 91 -4
q56 0 97 4v-6q-29 -6 -67 -50q-175 -199 -193 -221l193 -235q51 -62 66.5 -78t32.5 -22v-6q-42 4 -128 4q-56 0 -100 -4v6q21 0 21 21q0 5 -2.5 12.5t-8.5 17.5t-11.5 18.5t-15.5 23t-17 23t-19.5 25.5t-18.5 25l-72 95q-39 -48 -87 -124t-48 -112q0 -23 26 -25v-6
q-39 4 -87 4q-58 0 -105 -4z" />
    <glyph glyph-name="Y" unicode="Y" horiz-adv-x="648" 
d="M234 -4v6q33 3 40 53t7 202q-88 129 -121 177q-13 18 -35.5 51t-33.5 49t-26.5 36t-26 28.5t-18.5 9.5v6q12 0 53 -2t63 -2q57 0 101 4v-6q-1 0 -5 -2t-5.5 -2.5t-5 -2.5t-5 -3.5t-3.5 -4.5t-2.5 -6.5t-0.5 -8.5q0 -24 77 -141q76 -116 88 -130q33 53 75.5 144.5
t42.5 122.5q0 26 -30 34v6q37 -4 85 -4q22 0 82 4v-6q-19 -8 -35 -28q-31 -38 -109 -165q-67 -109 -95 -155q0 -154 7.5 -204.5t41.5 -53.5v-6q-34 4 -103 4q-64 0 -103 -4z" />
    <glyph glyph-name="Z" unicode="Z" horiz-adv-x="648" 
d="M567 174h20q-19 -93 -19 -183q-27 5 -80 8q-37 1 -182 1q-144 0 -280 -4q65 75 203.5 275t197.5 297q-23 3 -62 3q-128 0 -199 -36q-38 -19 -55.5 -38.5t-22.5 -53.5l-19 3q17 60 21 174q19 -6 59 -9q30 -1 147 -1q215 0 315 4q-71 -85 -205.5 -277.5t-193.5 -294.5
q42 -3 85 -3q141 0 208 41q56 34 62 94z" />
    <glyph glyph-name="bracketleft" unicode="[" horiz-adv-x="315" 
d="M197 663q-7 -54 -7 -353q0 -298 7 -352q18 -2 33 -2q25 0 49 2q-1 -5 -1 -21q0 -3 0.5 -10t0.5 -9q-45 7 -104 7q-45 0 -89 -6q17 83 17 391q0 307 -17 392q43 -6 89 -6q65 0 104 6q0 -2 -0.5 -8.5t-0.5 -9.5q0 -16 1 -22q-24 2 -49 2q-8 0 -18.5 -0.5t-14.5 -0.5z" />
    <glyph glyph-name="backslash" unicode="\" horiz-adv-x="407" 
d="M355 -64l-354 760h58l354 -760h-58z" />
    <glyph glyph-name="bracketright" unicode="]" horiz-adv-x="315" 
d="M119 -42q7 54 7 352q0 272 -7 353q-4 0 -14.5 0.5t-18.5 0.5q-24 0 -50 -2q2 12 2 22v11l-1 7q37 -6 103 -6q45 0 90 6q-17 -78 -17 -392t17 -391q-45 6 -90 6q-59 0 -103 -7l1 8v11q0 11 -2 21q26 -2 50 -2q13 0 33 2z" />
    <glyph glyph-name="asciicircum" unicode="^" 
d="M96 230l161 380h60l160 -380h-68l-122 283l-122 -283h-69z" />
    <glyph glyph-name="underscore" unicode="_" horiz-adv-x="500" 
d="M0 -75h500v-50h-500v50z" />
    <glyph glyph-name="grave" unicode="`" horiz-adv-x="360" 
d="M265 520q-7 6 -46.5 32.5t-85 56t-56.5 37.5q29 27 56 66q21 -28 74 -91t75 -84q-10 -6 -17 -17z" />
    <glyph glyph-name="a" unicode="a" horiz-adv-x="537" 
d="M491 -4h-31q-98 0 -123 -9q4 32 4 94q-75 -45 -127 -94q-26 2 -49.5 7.5t-56.5 18t-53 39.5t-20 65q0 30 7.5 50.5t24.5 33t31 18.5t40 14q35 11 104.5 23t101.5 23q0 19 -2.5 32.5t-11.5 32.5t-32.5 29.5t-59.5 10.5q-81 0 -131 -47q-5 10 -14 22q25 17 55 48t45 53
q37 9 88 9q85 0 129 -32.5t44 -119.5q0 -25 -2.5 -74t-2.5 -74q0 -97 6.5 -129t35.5 -38v-6zM155 150q0 -33 27 -53t61 -20q36 0 63.5 17t32.5 35q5 16 5 110q-1 0 -30 -4.5t-59 -10.5t-50 -12q-50 -17 -50 -62z" />
    <glyph glyph-name="b" unicode="b" 
d="M94 7l-20 -11q13 87 13 331q0 207 -7 282t-38 81v6q2 0 33 -2t52 -2q48 0 75 7q-10 -165 -10 -313q77 40 123 84q25 0 50.5 -5t55.5 -19.5t53 -37t38 -62t15 -90.5q0 -127 -93 -199q-42 -33 -103.5 -51.5t-119.5 -18.5q-52 0 -117 20zM196 58q46 -26 89 -26q60 0 86 25
q46 34 46 148q0 88 -38.5 131.5t-106.5 43.5q-39 0 -55 -16q-25 -25 -25 -194q0 -48 4 -112z" />
    <glyph glyph-name="c" unicode="c" horiz-adv-x="481" 
d="M388 305l-18 4q0 2 1.5 10t1.5 12q0 34 -40 59t-89 25q-27 0 -39 -9q-17 -12 -33.5 -55t-16.5 -84q0 -86 58.5 -135.5t136.5 -49.5q40 0 85 19q2 -9 9 -20q-74 -36 -130 -94q-123 0 -196 74t-73 178q0 69 48 124t110 81t119 26q64 0 127 -29q-43 -60 -61 -136z" />
    <glyph glyph-name="d" unicode="d" horiz-adv-x="556" 
d="M517 -4h-20q-96 0 -128 -9q6 36 6 89q-69 -43 -115 -89q-42 0 -69 8t-56 32q-36 30 -59.5 82.5t-23.5 112.5q0 121 70.5 184.5t181.5 63.5q36 0 71 -15v93q0 80 -9.5 110t-38.5 32v6q5 0 25 -2t31 -2q78 0 108 7q-4 -32 -7.5 -187t-3.5 -268q0 -69 0.5 -101t4 -71.5
t11.5 -54.5t21 -15v-6zM375 111v216q0 34 -4 44q-8 19 -37.5 36.5t-68.5 17.5q-54 0 -78.5 -43.5t-24.5 -111.5q0 -79 38 -133t102 -54q14 0 28 5t29 14t16 9z" />
    <glyph glyph-name="e" unicode="e" horiz-adv-x="500" 
d="M458 260h-293q0 -76 43 -127t130 -51q68 0 109 26q3 -12 8 -22q-86 -41 -133 -99q-53 0 -106.5 16.5t-86.5 43.5q-74 61 -74 190q0 105 68 169t172 64q20 0 39.5 -4.5t42.5 -18.5t40.5 -36t29 -61t11.5 -90zM165 290h160q15 0 19 2t4 11q0 21 -7.5 47t-33.5 53t-65 27
q-40 0 -57 -36q-20 -40 -20 -104z" />
    <glyph glyph-name="f" unicode="f" horiz-adv-x="315" 
d="M59 -4v6q28 9 33.5 46t5.5 182v183q-31 0 -63 -7q9 20 16 55q20 -2 24 -2q8 -1 23 -1q2 24 12 96q38 35 102 114q9 11 49.5 24.5t65.5 14.5q-16 -59 -16 -107q-20 7 -62 7q-26 0 -42 -5q-4 -34 -4 -144h22q45 0 90 3q-5 -12 -16 -55q-28 7 -73 7h-23v-183q0 -145 5 -182
t31 -46v-6q-60 4 -90 4q-32 0 -90 -4z" />
    <glyph glyph-name="g" unicode="g" horiz-adv-x="537" 
d="M433 413q25 -40 25 -94t-25 -91q-17 -23 -77 -61q-71 -44 -89 -50q-11 -4 -28.5 -6t-22.5 -4q-40 -10 -40 -29q0 -12 17 -22t48 -10q14 0 54 5t55 5q151 0 151 -108q0 -81 -85 -143q-74 -54 -177 -54q-109 0 -167.5 42.5t-58.5 114.5q33 5 75.5 26t64.5 41q-87 9 -87 71
q0 30 21 43q3 3 16 5.5t35.5 7.5t43.5 13v2q-46 8 -84.5 46t-38.5 112q0 29 10 66.5t22 59.5q7 13 80 40.5t131 27.5q68 0 111 -32q41 16 92 28q-5 -17 -5 -41q0 -19 2 -24q-33 9 -69 13zM138 -106q0 -46 37.5 -74.5t97.5 -28.5q123 0 123 96q0 49 -30 66.5t-85 17.5
q-11 0 -30.5 -0.5t-28.5 -0.5q-23 0 -31 1q-20 -16 -30 -26q-23 -23 -23 -51zM164 314q0 -63 30.5 -100t83.5 -37q41 0 55 14q20 15 20 92q0 60 -27.5 98t-86.5 38q-33 0 -52 -14q-11 -9 -17 -38t-6 -53z" />
    <glyph glyph-name="h" unicode="h" 
d="M62 -4v6q27 6 33 75t6 269q0 196 -7 267t-38 77v6q3 0 13 -1t28.5 -2t43.5 -1q48 0 75 7q-10 -165 -10 -331q18 14 47 45t43 51q22 6 51 6q84 0 110.5 -36.5t26.5 -110.5v-93q0 -145 5 -182t31 -46v-6q-40 4 -90 4q-51 0 -90 -4v6q28 9 33.5 46t5.5 182v52
q0 50 -18.5 71.5t-55.5 21.5q-25 0 -47 -8t-31 -18q-21 -24 -21 -151q0 -121 5.5 -154.5t30.5 -41.5v-6q-40 4 -91 4q-50 0 -89 -4z" />
    <glyph glyph-name="i" unicode="i" horiz-adv-x="296" 
d="M55 455v6q2 0 5.5 -0.5t9 -1t10.5 -0.5q26 -2 60 -2q48 0 75 13q-10 -93 -10 -240q0 -145 5 -182t31 -46v-6q-40 4 -90 4q-51 0 -90 -4v6q28 4 33.5 43t5.5 185q0 129 -7 175t-38 50zM157 510q-40 43 -77 69q46 40 74 79q28 -36 76 -76q-25 -22 -73 -72z" />
    <glyph glyph-name="j" unicode="j" horiz-adv-x="278" 
d="M45 455v6q2 0 5.5 -0.5t9 -1t10.5 -0.5q26 -2 60 -2q48 0 75 7q-10 -73 -10 -231q0 -74 0.5 -151.5t1.5 -125.5t1 -49q0 -34 -2 -44q-4 -3 -32.5 -20t-42.5 -27q-57 -39 -81 -57q-8 13 -15 19q44 25 54.5 120.5t10.5 334.5q0 127 -7 172.5t-38 49.5zM148 510
q-45 47 -78 69q47 40 74 79q34 -41 77 -76q-31 -26 -73 -72z" />
    <glyph glyph-name="k" unicode="k" horiz-adv-x="537" 
d="M216 234l-23 -14q0 -138 5 -173.5t31 -44.5v-6q-40 4 -90 4q-51 0 -90 -4v6q27 6 33 75t6 269q0 196 -7 267t-38 77v6q27 -4 85 -4q48 0 75 7q-10 -147 -10 -448q163 124 163 177q0 10 -4.5 16t-7 7t-10.5 4v6q62 -4 94 -4q56 0 96 4v-6q-33 -21 -113 -80.5t-112 -86.5
q42 -55 90 -123q82 -116 106 -140q19 -19 35 -23v-6h-88q-41 0 -71 -9q-4 6 -20 32.5t-39 63.5t-45 71q-11 17 -51 80z" />
    <glyph glyph-name="l" unicode="l" horiz-adv-x="296" 
d="M53 690v6q3 0 13 -1t28.5 -2t43.5 -1q48 0 75 7q-10 -117 -10 -353q0 -200 5.5 -269t30.5 -75v-6q-40 4 -90 4q-51 0 -90 -4v6q27 6 33 75t6 269q0 196 -7 267t-38 77z" />
    <glyph glyph-name="m" unicode="m" horiz-adv-x="852" 
d="M62 -4v6q28 4 33.5 43t5.5 185q0 129 -7 175t-38 50v6q4 0 36 -2q34 -2 49 -2q43 0 70 13q-5 -20 -5 -92q61 46 89 84q21 8 63 8q103 0 121 -92q67 55 86 85q23 7 59 7q93 0 118 -53q9 -17 11.5 -53t2.5 -134q0 -147 5 -185.5t31 -42.5v-6q-58 4 -91 4q-48 0 -91 -4v6
q29 3 35 42t6 186v23v22.5t-0.5 19.5t-2 20t-4.5 16.5t-7 15.5t-10 11t-14 9.5t-18.5 5t-23.5 2.5q-27 0 -54.5 -9.5t-31.5 -23.5q-4 -11 -4 -112q0 -146 5 -184.5t29 -43.5v-6q-39 4 -88 4q-27 0 -87 -4v6q26 4 31 43t5 185q0 95 -12 120t-70 25q-19 0 -48.5 -9.5
t-33.5 -25.5q-6 -24 -6 -110q0 -145 5 -182t31 -46v-6q-40 4 -90 4q-51 0 -90 -4z" />
    <glyph glyph-name="n" unicode="n" 
d="M59 -4v6q28 9 33.5 46t5.5 182q0 129 -7 175t-38 50v6q1 0 29 -2q30 -2 53 -2q47 0 73 13q-5 -30 -5 -99q58 41 89 93q20 6 57 6q50 0 91 -28t41 -97v-115q0 -145 5 -182t31 -46v-6q-40 4 -90 4q-51 0 -90 -4v6q28 9 33.5 46t5.5 182q0 25 -0.5 39t-4.5 37.5t-12 36
t-23.5 22.5t-38.5 10q-18 0 -41 -6t-32 -15q-21 -23 -21 -124q0 -145 5 -182t31 -46v-6q-40 4 -90 4q-51 0 -90 -4z" />
    <glyph glyph-name="o" unicode="o" horiz-adv-x="556" 
d="M482 117q-5 -9 -19.5 -22t-27 -22t-37.5 -26.5t-34 -23.5q-51 -36 -107 -36q-102 0 -156.5 61t-54.5 165q0 58 18.5 108t39.5 63q20 13 126 66q41 20 80 20q102 0 150.5 -52t48.5 -160q0 -15 -8 -68t-19 -73zM192 395q-16 -13 -26 -58t-10 -97q0 -96 45 -139.5t121 -43.5
q33 0 46 11t21 44q10 42 10 101q0 51 -10 91.5t-43 73t-87 32.5q-47 0 -67 -15z" />
    <glyph glyph-name="p" unicode="p" 
d="M51 -241v6q27 4 33 50t6 178q0 265 -7 359.5t-38 102.5v6q2 0 5.5 -0.5t9 -1t10.5 -0.5q26 -2 60 -2q48 0 75 13q0 -1 -4 -94q60 32 103 88q20 6 40 6q93 0 142.5 -50.5t49.5 -147.5q0 -58 -31.5 -116.5t-82.5 -95.5q-89 -65 -227 -65q0 -133 5.5 -179.5t30.5 -50.5v-6
q-60 4 -91 4t-89 -4zM195 196v-127q42 -24 103 -24q58 0 88 46t30 131q0 73 -29 110t-105 37q-41 0 -57 -15q-13 -12 -21.5 -56.5t-8.5 -101.5z" />
    <glyph glyph-name="q" unicode="q" horiz-adv-x="556" 
d="M164 265q0 -80 33 -127t93 -47q32 0 70 18q15 75 15 197q0 60 -30 85q-30 24 -85 24q-40 0 -57 -17q-39 -39 -39 -133zM332 -241v6q27 4 33 50.5t6 179.5v87q-5 -3 -18.5 -12.5t-17 -12t-13 -9.5t-13.5 -10.5t-11.5 -10t-13.5 -13t-13 -15.5q-19 -3 -39 -3
q-42 0 -83.5 22.5t-73 74.5t-31.5 122t22 115t49 64q27 20 69.5 39t74.5 27q37 10 63 10q52 0 134 -24l44 24q-24 -54 -24 -475q0 -133 5.5 -179.5t30.5 -50.5v-6q-60 4 -91 4t-89 -4z" />
    <glyph glyph-name="r" unicode="r" horiz-adv-x="389" 
d="M55 -4v6q27 4 33 50t6 178q0 129 -7 175t-38 50v6q4 0 26 -2q28 -2 59 -2q34 0 70 13q-4 -53 -5 -104q9 8 18.5 18.5t21.5 25.5t21 25q30 35 54 35q20 0 55 -26l-40 -97q-32 17 -54 17q-43 0 -76 -29v-105q0 -145 5 -182t31 -46v-6q-40 4 -91 4q-50 0 -89 -4z" />
    <glyph glyph-name="s" unicode="s" horiz-adv-x="463" 
d="M365 336v12q0 34 -41 55.5t-92 21.5q-38 0 -48 -11q-10 -12 -10 -43q0 -24 7.5 -40t28 -28.5t32 -17t43.5 -15.5q7 -2 29 -9.5t29 -10.5t23.5 -11t22.5 -15t15 -18.5t12 -26t3 -33.5q0 -46 -17 -75q-6 -9 -84 -55q-50 -29 -117 -29q-41 0 -85.5 11t-54.5 18q9 42 9 81
q0 10 -1 28.5t-1 21.5q6 0 18 2q2 -36 27 -62q21 -22 60.5 -38.5t70.5 -16.5q43 0 59 13q11 9 11 49q0 38 -21 57q-6 5 -30 17q-6 3 -36.5 12t-62 21t-47.5 23q-48 33 -48 103q0 58 17 75q4 4 64 32q77 36 126 36q24 0 68.5 -7.5t46.5 -7.5q-9 -36 -9 -82q0 -17 2 -35
q-7 0 -19 -2z" />
    <glyph glyph-name="t" unicode="t" horiz-adv-x="333" 
d="M220 411h-15q-6 -162 -6 -213q0 -88 14 -110q15 -21 54 -21q22 0 47 16q3 -11 9 -22q-77 -35 -109 -72q-12 -2 -25 -2q-41 0 -67 23q-20 17 -24 51.5t-4 136.5q0 8 3 108t3 105q-10 -1 -29.5 -3t-29.5 -2q4 11 18 55q7 -1 21.5 -2.5t21.5 -2.5q0 52 -7 93q85 0 124 27
q-12 -81 -12 -120h12q79 0 99 5q-6 -15 -15 -55q-23 5 -83 5z" />
    <glyph glyph-name="u" unicode="u" horiz-adv-x="593" 
d="M537 -4h-22q-114 0 -132 -9q3 21 3 103q-81 -57 -121 -103q-30 0 -48.5 1.5t-45 12t-44.5 30.5q-34 38 -34 122q0 9 1 52.5t1 72.5q0 109 -5.5 140t-31.5 37v6h39q87 0 118 9q-15 -95 -15 -226q0 -97 19 -124q22 -33 71 -33q47 0 82 30q19 17 19 134q0 140 -5.5 168
t-37.5 36v6h39q98 0 121 9q-3 -25 -7.5 -129t-4.5 -175q0 -91 6.5 -125.5t34.5 -38.5v-6z" />
    <glyph glyph-name="v" unicode="v" horiz-adv-x="519" 
d="M346 455v6q14 -3 26 -3q9 -1 27 -1q68 0 100 13q-21 -46 -100 -229q-51 -116 -97 -245q-10 4 -41 4q-32 0 -46 -4q-3 8 -16.5 44.5t-32.5 88t-32 85.5q-64 163 -84 206q-17 33 -36 35v6q15 -3 29 -3q10 -1 29 -1q70 0 96 13q48 -188 131 -386q82 246 82 319q0 19 -6 30.5
t-12 15t-17 6.5z" />
    <glyph glyph-name="w" unicode="w" horiz-adv-x="796" 
d="M631 455v6q5 0 19 -2q20 -2 36 -2q53 0 92 13q-31 -66 -103 -242.5t-87 -231.5q-13 4 -41 4q-30 0 -45 -4q-6 26 -48 138.5t-61 157.5q-22 -49 -61.5 -151t-52.5 -145q-16 4 -49 4q-28 0 -42 -4q-8 37 -60 205.5t-73 217.5q-12 27 -37 36v6q5 0 17 -2q24 -2 38 -2
q71 0 97 13q6 -40 19.5 -97t26 -100t31.5 -105.5t26 -86.5h2q17 54 52 139q40 100 40 123q0 21 -22 73q-16 38 -36 39v6q48 -4 87 -4q56 0 91 4v-6q-9 0 -16 -9t-7 -24q0 -24 33 -108q79 -207 87 -233h2q1 5 22 78.5t36 141.5t15 105q0 46 -28 49z" />
    <glyph glyph-name="x" unicode="x" horiz-adv-x="537" 
d="M39 455v6q9 0 23 -2q22 -2 45 -2q76 0 92 13q56 -122 105 -197q22 25 50 72.5t28 76.5q0 28 -24 33v6l30 -3q10 -1 26 -1q59 0 106 13q-7 -8 -42 -47t-55 -61q-38 -41 -101 -116q75 -118 144 -208q25 -34 48 -36v-6q-13 2 -41 4h-41q-54 0 -84 -13q-2 19 -20 52.5
t-51.5 86.5t-38.5 62q-50 -69 -65 -101q-20 -42 -20 -56t9 -21t18 -8v-6q-21 4 -82 4q-54 0 -82 -4q146 146 204 218q-14 24 -60 95t-72 108q-27 37 -49 38z" />
    <glyph glyph-name="y" unicode="y" horiz-adv-x="537" 
d="M370 455v6q2 -1 8 -1t9 -1q16 -2 33 -2q72 0 109 13q-4 -6 -14 -28t-32 -67.5t-41 -84.5q-87 -177 -135.5 -294.5t-82.5 -236.5q-15 4 -61 4q-45 0 -66 -4q101 107 172 231h-34q-19 40 -89 211q-83 199 -85 204q-13 28 -21.5 37.5t-19.5 12.5v6l16 -2q18 -2 30 -2
q77 0 112 13q29 -128 133 -382q23 56 53 159.5t30 158.5q0 40 -24 49z" />
    <glyph glyph-name="z" unicode="z" horiz-adv-x="519" 
d="M458 148l17 -3q-7 -29 -14 -82t-7 -76q-32 13 -240 13q-143 0 -188 -11q51 59 154.5 209.5t142.5 218.5h-38q-172 0 -205 -105l-18 4q18 90 18 116q0 2 -3 38q20 -4 77 -8q62 -2 95 -2q183 0 239 9q-59 -75 -154 -214.5t-136 -214.5h55q173 0 205 108z" />
    <glyph glyph-name="braceleft" unicode="{" 
d="M434 -155v-28q-31 3 -64 13t-67.5 29.5t-56.5 54t-22 79.5q0 28 14 90q13 69 13 88q0 73 -111 128v22q111 49 111 128q0 19 -13 86q-14 62 -14 97q0 71 60.5 115.5t149.5 55.5v-28q-108 -29 -108 -145q0 -17 7 -75t7 -79q0 -15 -3.5 -29.5t-9 -26.5t-15 -23.5t-17.5 -20
t-20.5 -17.5t-20.5 -14t-21.5 -12t-18.5 -9.5t-17 -7.5l-12 -6q24 -11 38.5 -18t39.5 -23t39.5 -31.5t26 -40.5t11.5 -53q0 -24 -6.5 -77.5t-6.5 -69.5q0 -125 107 -152z" />
    <glyph glyph-name="bar" unicode="|" horiz-adv-x="333" 
d="M142 -250v1000h49v-1000h-49z" />
    <glyph glyph-name="braceright" unicode="}" 
d="M140 -183v28q108 27 108 152q0 24 -7 69q-7 63 -7 78q0 28 11.5 53t26 40.5t39.5 31.5t39.5 23t38.5 18l-12 6q-12 5 -17 7.5t-18.5 9.5t-21.5 12t-20.5 14t-20.5 17.5t-17.5 20t-15 23.5t-9 26.5t-3.5 29.5q0 21 7.5 79t7.5 75q0 116 -109 145v28q90 -10 150.5 -55
t60.5 -116q0 -35 -14 -97t-14 -86q0 -78 111 -128v-22q-20 -10 -32.5 -18t-34 -24.5t-33 -38.5t-11.5 -47q0 -24 14 -88q14 -62 14 -90q0 -45 -22 -79.5t-57 -54t-67.5 -29.5t-64.5 -13z" />
    <glyph glyph-name="asciitilde" unicode="~" horiz-adv-x="963" 
d="M294 127h-62q0 241 142 241q40 0 69.5 -21t46 -50.5t31 -59t33.5 -50.5t44 -21q20 0 34.5 13.5t21.5 30t10.5 46t4 46t0.5 44.5h62q0 -28 -1 -45.5t-4 -50.5t-12.5 -55t-24 -45t-40 -35t-58.5 -12q-40 0 -68.5 21t-44 51t-29 60t-32.5 51t-44 21q-19 0 -33 -8
t-22.5 -24.5t-13.5 -32t-7 -40t-2.5 -38.5t-0.5 -37z" />
    <glyph glyph-name="uni00A0" unicode="&#xa0;" horiz-adv-x="278" 
 />
    <glyph glyph-name="exclamdown" unicode="&#xa1;" horiz-adv-x="333" 
d="M169 310q-36 49 -75 83q36 30 81 77q46 -61 79 -85q-48 -35 -85 -75zM216 -165h-13q-72 0 -112 -14q0 19 9 135t12 135q2 13 24 91t26 90q12 0 18 1q22 -179 26 -228q10 -150 10 -210z" />
    <glyph glyph-name="cent" unicode="&#xa2;" 
d="M306 -13v61q-32 3 -68 20t-70 45.5t-56 74.5t-22 101q0 45 18 84t43 63.5t57 43.5t55.5 27.5t42.5 12.5v58q7 -1 20 -1q12 0 18 1v-51q3 0 11 0.5t12 0.5q67 0 131 -29q-41 -59 -61 -136l-18 4q3 10 3 22q0 31 -29.5 54t-48.5 25v-318q31 -11 54 -11q38 0 85 19
q1 -7 8 -21q-45 -23 -69 -40.5t-60 -52.5h-18v-57q-6 1 -18 1q-14 0 -20 -1zM306 162v311q-42 0 -62 -15q-21 -16 -32.5 -56.5t-11.5 -72.5q0 -62 31.5 -106t74.5 -61z" />
    <glyph glyph-name="sterling" unicode="&#xa3;" 
d="M26 -13l-7 22q83 28 120 88q23 38 23 108v77q-64 -4 -90 -8q11 27 16 48q13 -2 42 -2q21 0 32 2q0 114 20 163q11 29 105 79q75 41 124 41q15 0 49 -2q-26 -55 -26 -127h-20q0 2 0.5 6t0.5 6q0 26 -14 40q-18 17 -55 17q-35 0 -54 -21q-5 -5 -8.5 -16t-6 -27t-3.5 -30
t-1.5 -35.5t-0.5 -34v-33.5v-26q71 0 107 7q-11 -20 -19 -50q-42 4 -62 4q-5 0 -13.5 -0.5t-12.5 -0.5q-9 -179 -139 -243l2 -2q51 17 110.5 25t131.5 12l72 3q7 1 13.5 3t11.5 4t10 7.5t7.5 8t6.5 9.5t5 9l5 10t4 9l20 -9q-32 -56 -57 -141q-140 13 -311 13q-60 0 -138 -13
z" />
    <glyph glyph-name="currency" unicode="&#xa4;" 
d="M81 66l-30 31l67 67q-47 51 -47 136q0 77 48 138l-69 69l32 31l68 -68q64 46 137 46t137 -46l68 68l32 -31l-69 -69q47 -51 47 -138q0 -84 -46 -136l67 -67l-30 -31l-66 66q-65 -47 -140 -47q-80 0 -140 47zM287 475q-72 0 -123.5 -51.5t-51.5 -123.5t51.5 -123
t123.5 -51t123 51t51 123t-51 123.5t-123 51.5z" />
    <glyph glyph-name="yen" unicode="&#xa5;" 
d="M191 -4v6q21 5 32 30q15 38 15 118v66q-163 0 -201 -4q3 10 11 45q75 -1 180 -1l-44 85q-52 -2 -147 -2q5 15 11 45q35 -3 116 -3q-54 117 -116 199q-21 28 -39 29v5q12 0 53 -2t63 -2q57 0 101 4v-5q-1 0 -5 -2t-5.5 -2.5t-5 -2.5t-5 -4t-3.5 -5t-2.5 -6.5t-0.5 -8.5
q0 -23 40.5 -116.5t83.5 -175.5q37 78 70.5 168.5t34.5 119.5q0 28 -30 35v5q37 -4 85 -4q61 0 82 4v-5q-20 -9 -35 -29q-66 -88 -118 -199q110 0 136 3q-4 -9 -8.5 -25.5t-5.5 -19.5q-91 0 -141 2l-40 -85q163 0 195 1q-13 -35 -14 -45q-43 4 -186 4v-66q0 -88 16 -124
q5 -13 11 -17t18 -7v-6q-40 4 -102 4q-56 0 -100 -4z" />
    <glyph glyph-name="brokenbar" unicode="&#xa6;" horiz-adv-x="232" 
d="M86 675h60v-350h-60v350zM86 175h60v-350h-60v350z" />
    <glyph glyph-name="section" unicode="&#xa7;" 
d="M428 -154l-58 -36q-52 -32 -140 -32q-71 0 -134 23q6 25 6 77q0 8 -3 71q11 0 15 1q10 -57 61.5 -89.5t116.5 -32.5q58 0 80 25q15 18 15 54q0 35 -10 51.5t-31 31.5q-17 12 -68.5 29t-52.5 17q-4 1 -25 8.5t-32 12.5t-30.5 17.5t-29.5 27t-18.5 39t-8.5 54.5q0 35 21 59
q6 7 16.5 14.5t26.5 16t27.5 14t31.5 14.5t27 12q-2 1 -18.5 7.5t-25 11l-25.5 13.5t-26.5 19t-20.5 24t-16 32t-5 39q0 38 16 62q8 13 64 45q78 45 163 45q18 0 68 -5q42 -6 43 -6q3 0 21 3q-8 -40 -8 -98q0 -14 2 -38q-7 0 -17 -2q-3 43 -46 68q-46 27 -114 27
q-53 0 -69 -15q-18 -15 -18 -47q0 -25 9 -44.5t29 -34.5t38.5 -24t51.5 -23q9 -4 33.5 -13.5t34.5 -14t29.5 -15t28.5 -19.5t20 -22.5t15.5 -30.5t4.5 -37q0 -31 -7.5 -45.5t-23.5 -27.5q-36 -28 -111 -67q61 -19 81 -32q29 -18 44.5 -41.5t15.5 -65.5q0 -50 -18 -74
q-6 -7 -46 -33zM223 137q40 -27 72 -27q14 0 38.5 9t39.5 20q15 12 15 55q0 25 -7.5 43t-14 24t-20.5 16q-22 16 -66 28q-58 -9 -77 -30q-22 -24 -22 -57q0 -54 42 -81z" />
    <glyph glyph-name="dieresis" unicode="&#xa8;" horiz-adv-x="370" 
d="M98 520q-31 33 -66 61q31 26 65 66q34 -39 64 -59q-45 -43 -63 -68zM274 520q-29 33 -66 61q35 29 66 66q34 -39 63 -59q-41 -38 -63 -68z" />
    <glyph glyph-name="copyright" unicode="&#xa9;" horiz-adv-x="500" 
d="M337 359h21q-2 -18 -5 -29t-12.5 -29.5t-30.5 -28.5t-53 -10q-56 0 -92.5 38t-36.5 97t38.5 101t84.5 42q23 0 44 -8t27 -8q4 0 6.5 2t6.5 8l4 5h15v-101l-15 -4q0 1 -5 12.5t-6 14.5t-6 13.5t-8.5 14.5t-9.5 11.5t-11.5 11t-13 6t-15.5 2.5q-71 0 -71 -123q0 -51 19 -81
t55 -30q56 0 70 73zM250 174q-95 0 -164.5 65.5t-69.5 159.5t69.5 159t164.5 65t164.5 -65t69.5 -159t-69.5 -159.5t-164.5 -65.5zM51 399q0 -80 58.5 -135t140.5 -55t140.5 55t58.5 135q0 79 -58.5 134t-140.5 55t-140.5 -55t-58.5 -134z" />
    <glyph glyph-name="ordfeminine" unicode="&#xaa;" 
d="M339 323v27q-36 -20 -83 -54q-121 9 -121 86q0 24 11.5 39.5t34.5 24.5t46 14t56.5 11.5t55.5 12.5q-3 59 -68 59q-18 0 -34.5 -5.5t-23.5 -10t-27 -17.5l-12 19q14 11 24.5 20.5t14 13t14.5 16.5t15 18q33 6 65 6q33 0 56.5 -8t34.5 -17.5t17 -26.5t7 -26.5t1 -24.5
q0 -7 -1 -41.5t-1 -51.5q0 -61 4.5 -74.5t28.5 -23.5v-8h-29q-51 0 -90 -5q4 20 4 27zM339 414v35q-70 -8 -90 -17q-24 -12 -24 -33q0 -17 14.5 -27.5t37.5 -10.5q34 0 48 13t14 40z" />
    <glyph glyph-name="guillemotleft" unicode="&#xab;" horiz-adv-x="481" 
d="M223 63q-16 20 -86 101t-88 100q51 50 173 206q2 -2 16 -10q-3 -8 -24.5 -56.5t-38 -88t-19.5 -48.5q5 -12 24.5 -58t38.5 -91l19 -44q-5 -3 -15 -11zM417 63q-130 156 -175 201q30 28 174 206q7 -5 16 -10q-66 -146 -82 -193q70 -172 82 -193q-3 -2 -15 -11z" />
    <glyph glyph-name="logicalnot" unicode="&#xac;" horiz-adv-x="963" 
d="M446 339h70q143 0 195 6q-1 -11 -1 -106q0 -83 1 -99q-26 2 -39 2t-39 -2q0 13 2 69t2 62h-191q-143 -2 -195 -5q1 13 1 39q0 6 -0.5 19.5t-0.5 20.5q43 -6 195 -6z" />
    <glyph glyph-name="uni00AD" unicode="&#xad;" horiz-adv-x="426" 
d="M269 223h-73q-97 0 -153 -8q20 35 31 88q27 -6 122 -10h73q61 0 113 8q-23 -39 -33 -83q-68 5 -80 5z" />
    <glyph glyph-name="registered" unicode="&#xae;" horiz-adv-x="500" 
d="M136 274v19q23 2 30 8.5t7 31.5v143q0 23 -6 28t-31 8v20h122q53 0 81 -13.5t28 -51.5q0 -23 -14 -37.5t-25.5 -18.5t-33.5 -9q27 -16 38.5 -39.5t15.5 -38t14 -14.5q16 0 16 33h20q0 -24 -12 -46.5t-41 -22.5t-42.5 19t-15 42t-12.5 42t-36 19h-11v-60q0 -28 5.5 -33.5
t32.5 -9.5v-19h-130zM228 474v-57h21q57 0 57 45q0 50 -43 50q-16 0 -24 -5t-9.5 -11.5t-1.5 -21.5zM252 173q-95 0 -164.5 65.5t-69.5 159.5t69.5 159.5t164.5 65.5t164.5 -65.5t69.5 -159.5t-69.5 -159.5t-164.5 -65.5zM53 398q0 -79 58.5 -134.5t140.5 -55.5t140.5 55.5
t58.5 134.5t-58.5 134.5t-140.5 55.5t-140.5 -55.5t-58.5 -134.5z" />
    <glyph glyph-name="macron" unicode="&#xaf;" horiz-adv-x="370" 
d="M47 585q18 34 24 63q32 -7 141 -7q41 0 75 2.5t35 2.5q-17 -27 -25 -59q-54 4 -85 4q-110 0 -165 -6z" />
    <glyph glyph-name="degree" unicode="&#xb0;" 
d="M289 363q-54 0 -92 38.5t-38 91.5t38 91.5t92 38.5t92 -38.5t38 -91.5t-38 -91.5t-92 -38.5zM209 493q0 -33 23 -56.5t57 -23.5q33 0 56.5 23.5t23.5 56.5t-23.5 56.5t-56.5 23.5q-34 0 -57 -23.5t-23 -56.5z" />
    <glyph glyph-name="plusminus" unicode="&#xb1;" horiz-adv-x="963" 
d="M251 187q1 13 1 40q0 7 -0.5 21t-0.5 20q46 -5 195 -5q0 10 -2 93t-2 103q13 -1 39 -1q27 0 40 1q0 -18 -2.5 -103t-2.5 -93q150 0 195 5q0 -5 -0.5 -19.5t-0.5 -21.5t0.5 -21t0.5 -19q-54 6 -195 6q0 -7 2.5 -81.5t2.5 -90.5q-13 2 -40 2q-26 0 -39 -2q0 18 2 91t2 81
q-140 0 -195 -6zM516 -102h-70q-140 0 -195 -6q1 13 1 40q0 7 -0.5 20.5t-0.5 20.5q46 -5 195 -5h70q155 0 195 5q0 -5 -0.5 -19.5t-0.5 -21.5t0.5 -21t0.5 -19q-47 6 -195 6z" />
    <glyph glyph-name="twosuperior" unicode="&#xb2;" horiz-adv-x="370" 
d="M140 285h49q78 0 92.5 4t20.5 27q2 7 3 11q12 -5 21 -5q-15 -44 -19 -97q-14 2 -48 4q-20 1 -80 1q-89 0 -141 -2q39 33 118 119q78 83 78 133q0 31 -19.5 46t-49.5 15q-46 0 -76 -44q-2 4 -17 14q29 33 43 73q43 12 77 12q47 0 82 -23t35 -73q0 -9 -2 -19t-8 -20.5
t-10.5 -19.5t-15 -21t-16.5 -19.5t-19.5 -20.5t-19.5 -19t-21 -20.5t-20 -19.5z" />
    <glyph glyph-name="threesuperior" unicode="&#xb3;" horiz-adv-x="370" 
d="M89 508l-14 15q27 26 44 64q41 9 64 9q12 0 24.5 -1.5t36 -8.5t38 -26.5t14.5 -48.5q0 -56 -67 -85v-2q10 -1 22.5 -4t29 -11t27.5 -26.5t11 -43.5q0 -50 -49 -81.5t-107 -31.5q-69 0 -122 37q20 18 26.5 27t17.5 32q50 -61 102 -61q30 0 43 18q14 19 14 50
q0 34 -22 54.5t-53 20.5q-11 0 -33 -6q6 15 9 33q16 -2 24 -2q27 0 39.5 17.5t12.5 41.5q0 53 -61 53q-46 0 -71 -33z" />
    <glyph glyph-name="acute" unicode="&#xb4;" horiz-adv-x="370" 
d="M99 520q-7 11 -17 17q22 21 75 84t74 91q27 -39 56 -66q-11 -8 -56.5 -37.5t-85 -56t-46.5 -32.5z" />
    <glyph glyph-name="mu" unicode="&#xb5;" horiz-adv-x="593" 
d="M537 -4h-22q-114 0 -132 -9q3 21 3 103q-81 -57 -121 -103q-47 0 -69 9q0 -220 7 -224q-79 0 -127 -13q4 53 11.5 259.5t7.5 259.5q0 109 -5.5 140t-31.5 37v6h39q87 0 118 9q-15 -95 -15 -226q0 -97 19 -124q22 -33 71 -33q47 0 82 30q19 17 19 134q0 140 -5.5 168
t-37.5 36v6h39q98 0 121 9q-3 -25 -7.5 -129t-4.5 -175q0 -91 6.5 -125.5t34.5 -38.5v-6z" />
    <glyph glyph-name="paragraph" unicode="&#xb6;" 
d="M292 -295v437q-219 41 -221 226q0 64 26.5 111t63.5 71.5t89 39t89 17.5t78 3h69v-39h-70v-866h-37v865q-17 -1 -49 -5v-860h-38z" />
    <glyph glyph-name="periodcentered" unicode="&#xb7;" 
d="M289 220q-45 50 -90 82q41 32 89 89q45 -50 86 -80q-51 -47 -85 -91z" />
    <glyph glyph-name="cedilla" unicode="&#xb8;" horiz-adv-x="370" 
d="M182 0h31q-5 -9 -17 -32.5t-14 -26.5q18 6 40 6q33 0 57.5 -13t24.5 -39q0 -36 -34.5 -58t-84.5 -22q-58 0 -125 35q8 12 15 27q12 -9 40 -18t53 -9t40.5 8.5t15.5 22.5t-16 22.5t-38 8.5q-27 0 -41 -7q18 24 53 95z" />
    <glyph glyph-name="onesuperior" unicode="&#xb9;" horiz-adv-x="370" 
d="M129 228v6q19 1 22.5 22t3.5 123q0 121 -2.5 147.5t-16.5 26.5h-14q1 3 1 11q0 7 -1 10q62 1 111 28q0 -1 -0.5 -6t-0.5 -17.5t-0.5 -34t-1 -65t-0.5 -100.5q0 -98 3.5 -121.5t20.5 -23.5v-6q-20 2 -63 2q-24 0 -62 -2z" />
    <glyph glyph-name="ordmasculine" unicode="&#xba;" 
d="M276 296q-75 0 -109.5 42t-34.5 106q0 58 25 90.5t82 50.5q59 19 81 19q60 0 96 -34q34 -32 34 -96q0 -66 -19 -94q-4 -7 -14.5 -15t-19 -14t-19 -13t-12.5 -8q-52 -34 -90 -34zM217 462q0 -51 25.5 -81t74.5 -30q26 0 38 10q10 9 10 73q0 122 -86 122q-31 0 -43 -9
q-19 -14 -19 -85z" />
    <glyph glyph-name="guillemotright" unicode="&#xbb;" horiz-adv-x="481" 
d="M257 63q-10 8 -15 11l19 44q19 45 38.5 91t24.5 58q-3 9 -19.5 48.5t-38 88t-24.5 56.5q9 5 16 10q122 -156 173 -206q-18 -19 -88 -100t-86 -101zM63 63q-7 7 -14 11q48 112 81 193q-3 10 -81 193q10 6 15 10q144 -178 174 -206q-56 -58 -175 -201z" />
    <glyph glyph-name="onequarter" unicode="&#xbc;" horiz-adv-x="963" 
d="M669 72v57q-99 0 -159 -2l-16 33q29 27 98 101t91 102q20 -2 31 -2q16 0 36 2q-6 -62 -6 -189q40 0 65 4q-15 -33 -19 -52q-42 3 -46 3v-57q0 -40 3.5 -53t14.5 -15v-6q-40 2 -59 2q-22 0 -60 -2v6q26 0 26 68zM669 302l-111 -128h111v128zM212 -13l398 618
q4 0 13.5 -0.5t14.5 -0.5t15.5 0.5t14.5 0.5l-398 -618q-6 0 -17 0.5t-13 0.5q-4 0 -13.5 -0.5t-14.5 -0.5zM187 228v6q19 1 22.5 22t3.5 123q0 123 -2.5 148.5t-16.5 25.5h-14q1 3 1 11q0 7 -1 10q62 1 111 28q0 -1 -0.5 -9.5t-0.5 -24.5t-0.5 -39.5t-1 -63t-0.5 -86.5
q0 -98 3.5 -121.5t20.5 -23.5v-6q-20 2 -63 2q-24 0 -62 -2z" />
    <glyph glyph-name="onehalf" unicode="&#xbd;" horiz-adv-x="963" 
d="M198 -13l398 618q4 0 13.5 -0.5t14.5 -0.5t15.5 0.5t14.5 0.5l-398 -618q-6 0 -17 0.5t-13 0.5q-4 0 -13.5 -0.5t-14.5 -0.5zM173 228v6q19 1 22.5 22t3.5 123q0 121 -2.5 147.5t-16.5 26.5h-14q1 3 1 11q0 7 -1 10q62 1 111 28q0 -1 -0.5 -6t-0.5 -17.5t-0.5 -34t-1 -65
t-0.5 -100.5q0 -98 3.5 -121.5t20.5 -23.5v-6q-20 2 -63 2q-24 0 -62 -2zM618 55h49q68 0 88 8t28 34q12 -5 21 -5q-15 -44 -19 -97q-14 2 -48 4q-20 1 -80 1q-89 0 -141 -2q39 33 118 119q78 83 78 133q0 31 -19.5 46t-49.5 15q-56 0 -76 -44q-2 4 -17 14q29 33 43 73
q43 12 77 12q47 0 82 -23t35 -73q0 -25 -23 -59.5t-43.5 -55t-65.5 -64.5z" />
    <glyph glyph-name="threequarters" unicode="&#xbe;" horiz-adv-x="963" 
d="M685 72v57q-99 0 -159 -2l-16 33q29 27 98 101t91 102q20 -2 31 -2q16 0 36 2q-6 -62 -6 -189q40 0 65 4q-15 -33 -19 -52q-42 3 -46 3v-57q0 -40 3.5 -53t14.5 -15v-6q-40 2 -59 2q-22 0 -60 -2v6q26 0 26 68zM685 302l-111 -128h111v128zM258 -13l398 618
q4 0 13.5 -0.5t14.5 -0.5t15.5 0.5t14.5 0.5l-398 -618q-6 0 -17 0.5t-13 0.5q-4 0 -13.5 -0.5t-14.5 -0.5zM164 508l-14 15q27 26 44 64q41 9 64 9q12 0 24.5 -1.5t36 -8.5t38 -26.5t14.5 -48.5q0 -56 -67 -85v-2q10 -1 22.5 -4t29 -11t27.5 -26.5t11 -43.5
q0 -50 -49 -81.5t-107 -31.5q-69 0 -122 37q20 18 26.5 27t17.5 32q50 -61 102 -61q25 0 38 13q19 19 19 55q0 34 -22 54.5t-53 20.5q-11 0 -33 -6q6 15 9 33q16 -2 24 -2q26 0 39 17.5t13 41.5q0 53 -61 53q-46 0 -71 -33z" />
    <glyph glyph-name="questiondown" unicode="&#xbf;" horiz-adv-x="389" 
d="M223 310q-41 54 -76 83q36 30 81 77q45 -59 79 -85q-49 -36 -84 -75zM352 -50l7 -7q-13 -14 -34.5 -49t-33.5 -62q-75 -16 -117 -16q-60 0 -97.5 34.5t-37.5 94.5q0 32 15 61.5t32 46t45.5 42t41.5 38.5q47 50 47 95q0 27 -26 53q8 5 13 11l7 -7q8 -7 11 -10.5t10 -11.5
t10.5 -14.5t8 -16t6.5 -19.5t2 -20q0 -37 -26 -76t-51.5 -74.5t-25.5 -63.5q0 -35 23.5 -53.5t62.5 -18.5q33 0 63.5 14t43.5 29z" />
    <glyph glyph-name="Agrave" unicode="&#xc0;" horiz-adv-x="667" 
d="M594 68q30 -63 56 -66v-6q-31 4 -88 4q-46 0 -78 -4q-18 69 -83 251q-35 3 -95 3q-62 0 -97 -3q-12 -29 -37 -108t-25 -102q0 -28 27 -35v-6q-30 4 -86 4q-40 0 -72 -4v6q24 7 65 81q26 46 49.5 98.5t55.5 135t43 108.5q48 116 48 148q0 21 -21 35v6l12 -1
q11 -1 27.5 -1.5t30.5 -0.5q34 0 68 3q18 -72 46 -153q88 -255 154 -393zM387 288q-4 10 -40.5 110.5t-42.5 115.5q-75 -207 -81 -226q23 -3 82 -3t82 3zM419 664q-7 6 -46.5 32.5t-85 56t-56.5 37.5q29 27 56 66q21 -28 74 -91t75 -84q-10 -6 -17 -17z" />
    <glyph glyph-name="Aacute" unicode="&#xc1;" horiz-adv-x="667" 
d="M594 68q30 -63 56 -66v-6q-31 4 -88 4q-46 0 -78 -4q-18 69 -83 251q-35 3 -95 3q-62 0 -97 -3q-12 -29 -37 -108t-25 -102q0 -28 27 -35v-6q-30 4 -86 4q-40 0 -72 -4v6q24 7 65 81q26 46 49.5 98.5t55.5 135t43 108.5q48 116 48 148q0 21 -21 35v6l12 -1
q11 -1 27.5 -1.5t30.5 -0.5q34 0 68 3q18 -72 46 -153q88 -255 154 -393zM387 288q-4 10 -40.5 110.5t-42.5 115.5q-75 -207 -81 -226q23 -3 82 -3t82 3zM268 664q-7 11 -17 17q22 21 75 84t74 91q27 -39 56 -66q-11 -8 -56.5 -37.5t-85 -56t-46.5 -32.5z" />
    <glyph glyph-name="Acircumflex" unicode="&#xc2;" horiz-adv-x="667" 
d="M594 68q30 -63 56 -66v-6q-31 4 -88 4q-46 0 -78 -4q-18 69 -83 251q-35 3 -95 3q-62 0 -97 -3q-12 -29 -37 -108t-25 -102q0 -28 27 -35v-6q-30 4 -86 4q-40 0 -72 -4v6q24 7 65 81q26 46 49.5 98.5t55.5 135t43 108.5q48 116 48 148q0 21 -21 35v6l12 -1
q11 -1 27.5 -1.5t30.5 -0.5q34 0 68 3q18 -72 46 -153q88 -255 154 -393zM387 288q-4 10 -40.5 110.5t-42.5 115.5q-75 -207 -81 -226q23 -3 82 -3t82 3zM193 664q-5 10 -16 19q17 14 79.5 73t77.5 75q15 -16 77.5 -75.5t78.5 -72.5q-11 -9 -16 -19q-60 41 -140 82
q-84 -44 -141 -82z" />
    <glyph glyph-name="Atilde" unicode="&#xc3;" horiz-adv-x="667" 
d="M594 68q30 -63 56 -66v-6q-31 4 -88 4q-46 0 -78 -4q-18 69 -83 251q-35 3 -95 3q-62 0 -97 -3q-12 -29 -37 -108t-25 -102q0 -28 27 -35v-6q-30 4 -86 4q-40 0 -72 -4v6q24 7 65 81q26 46 49.5 98.5t55.5 135t43 108.5q48 116 48 148q0 21 -21 35v6l12 -1
q11 -1 27.5 -1.5t30.5 -0.5q34 0 68 3q18 -72 46 -153q88 -255 154 -393zM387 288q-4 10 -40.5 110.5t-42.5 115.5q-75 -207 -81 -226q23 -3 82 -3t82 3zM198 716q-5 9 -16 19l9 11q9 10 13 14t14 13.5t17.5 14.5t18 11.5t20.5 9t21 2.5q22 0 60 -22q36 -23 56 -23
q17 0 34.5 13.5t22.5 24.5q4 -6 18 -18q-48 -77 -108 -77q-26 0 -63.5 19t-57.5 19q-10 0 -20.5 -4t-16.5 -8.5t-13.5 -11t-8.5 -7.5z" />
    <glyph glyph-name="Adieresis" unicode="&#xc4;" horiz-adv-x="667" 
d="M594 68q30 -63 56 -66v-6q-31 4 -88 4q-46 0 -78 -4q-18 69 -83 251q-35 3 -95 3q-62 0 -97 -3q-12 -29 -37 -108t-25 -102q0 -28 27 -35v-6q-30 4 -86 4q-40 0 -72 -4v6q24 7 65 81q26 46 49.5 98.5t55.5 135t43 108.5q48 116 48 148q0 21 -21 35v6l12 -1
q11 -1 27.5 -1.5t30.5 -0.5q34 0 68 3q18 -72 46 -153q88 -255 154 -393zM387 288q-4 10 -40.5 110.5t-42.5 115.5q-75 -207 -81 -226q23 -3 82 -3t82 3zM247 664q-31 33 -66 61q31 26 65 66q34 -39 64 -59q-45 -43 -63 -68zM423 664q-29 33 -66 61q35 29 66 66
q34 -39 63 -59q-41 -38 -63 -68z" />
    <glyph glyph-name="Aring" unicode="&#xc5;" horiz-adv-x="667" 
d="M594 68q30 -63 56 -66v-6q-31 4 -88 4q-46 0 -78 -4q-18 69 -83 251q-35 3 -95 3q-62 0 -97 -3q-12 -29 -37 -108t-25 -102q0 -28 27 -35v-6q-30 4 -86 4q-40 0 -72 -4v6q24 7 65 81q26 46 49.5 98.5t55.5 135t43 108.5q48 116 48 148q0 21 -21 35v6l12 -1
q11 -1 27.5 -1.5t30.5 -0.5q34 0 68 3q18 -72 46 -153q88 -255 154 -393zM387 288q-4 10 -40.5 110.5t-42.5 115.5q-75 -207 -81 -226q23 -3 82 -3t82 3zM334 672q-36 0 -62.5 26.5t-26.5 61.5t26.5 61.5t62.5 26.5q35 0 61.5 -26.5t26.5 -61.5t-26.5 -61.5t-61.5 -26.5z
M286 760q0 -19 14.5 -33t33.5 -14t33 14t14 33t-14 33t-33 14q-20 0 -34 -14t-14 -33z" />
    <glyph glyph-name="AE" unicode="&#xc6;" horiz-adv-x="1000" 
d="M509 303q0 199 -3 261q-36 -46 -186 -261q31 -2 92 -2q63 0 97 2zM451 608v6q9 -1 65 -3q28 -1 64 -1q284 0 337 13q-16 -69 -16 -123v-19h-17q0 95 -187 95q-31 0 -71 -5q-7 -112 -7 -230q27 -4 61 -4q86 0 114 15.5t30 51.5h17q-8 -68 -8 -104q0 -14 1 -42.5t1 -29.5
h-17q-2 18 -6 28.5t-17 22.5t-41.5 17.5t-73.5 5.5q-10 0 -30.5 -0.5t-30.5 -0.5q0 -35 1 -131t1 -126q26 -5 72 -5q110 0 162 26.5t74 73.5l15 -8q-37 -82 -49 -144q-19 9 -119 11q-59 2 -209 2q-66 0 -106 -4v6q55 4 48 262q-72 2 -107 2q-36 0 -108 -2
q-137 -198 -137 -238q0 -9 3.5 -14t6 -6t12.5 -4v-6q-37 4 -84 4q-54 0 -80 -4v6q6 0 15 7t24.5 25.5t27.5 33t36.5 46.5t38.5 50q23 30 200 263q104 139 104 163q0 16 -10 18z" />
    <glyph glyph-name="Ccedilla" unicode="&#xc7;" horiz-adv-x="611" 
d="M328 -10q-8 -15 -25 -49q18 6 40 6q33 0 57.5 -13t24.5 -39q0 -36 -34.5 -58t-84.5 -22q-58 0 -125 35q7 12 15 27q12 -9 40 -18t53 -9t40.5 8.5t15.5 22.5t-16 22.5t-38 8.5q-27 0 -41 -7q19 27 49 87q-121 19 -189 101t-68 209q0 65 20.5 118t54 86.5t72.5 58t82 36.5
t75 17t58 5q49 0 97 -8t50 -8h16q-12 -23 -23.5 -65t-11.5 -77q0 -3 0.5 -10.5t0.5 -11.5h-21q0 40 -14.5 64.5t-49.5 37.5q-50 18 -118 18q-64 0 -95 -18q-35 -21 -54 -79.5t-19 -104.5q0 -274 245 -274q77 0 139 45q4 3 11 9.5t11 9.5q6 -10 14 -20q-40 -34 -63.5 -61
t-51.5 -70q-45 -13 -100 -13q-19 0 -39 3z" />
    <glyph glyph-name="Egrave" unicode="&#xc8;" 
d="M47 608v6q30 -3 53 -3q17 -1 50 -1q302 0 356 13q-16 -69 -16 -122v-20h-17q0 95 -187 95q-32 0 -74 -5q-7 -115 -7 -226q28 -4 64 -4q86 0 114 15t31 51h16q-8 -68 -8 -102q0 -14 1 -43t1 -30h-17q0 34 -27.5 54t-110.5 20q-42 0 -64 -1q0 -188 2 -261q28 -5 76 -5
q76 0 127 14.5t73.5 34.5t36.5 50l15 -7q-37 -81 -49 -144q-20 9 -122 11q-61 2 -214 2q-64 0 -103 -4v6q33 3 40.5 62.5t7.5 241.5q0 181 -7.5 240t-40.5 62zM342 664q-7 6 -46.5 32.5t-85 56t-56.5 37.5q29 27 56 66q21 -28 74 -91t75 -84q-10 -6 -17 -17z" />
    <glyph glyph-name="Eacute" unicode="&#xc9;" 
d="M47 608v6q30 -3 53 -3q17 -1 50 -1q302 0 356 13q-16 -69 -16 -122v-20h-17q0 95 -187 95q-32 0 -74 -5q-7 -115 -7 -226q28 -4 64 -4q86 0 114 15t31 51h16q-8 -68 -8 -102q0 -14 1 -43t1 -30h-17q0 34 -27.5 54t-110.5 20q-42 0 -64 -1q0 -188 2 -261q28 -5 76 -5
q76 0 127 14.5t73.5 34.5t36.5 50l15 -7q-37 -81 -49 -144q-20 9 -122 11q-61 2 -214 2q-64 0 -103 -4v6q33 3 40.5 62.5t7.5 241.5q0 181 -7.5 240t-40.5 62zM231 664q-7 11 -17 17q22 21 75 84t74 91q27 -39 56 -66q-11 -8 -56.5 -37.5t-85 -56t-46.5 -32.5z" />
    <glyph glyph-name="Ecircumflex" unicode="&#xca;" 
d="M47 608v6q30 -3 53 -3q17 -1 50 -1q302 0 356 13q-16 -69 -16 -122v-20h-17q0 95 -187 95q-32 0 -74 -5q-7 -115 -7 -226q28 -4 64 -4q86 0 114 15t31 51h16q-8 -68 -8 -102q0 -14 1 -43t1 -30h-17q0 34 -27.5 54t-110.5 20q-42 0 -64 -1q0 -188 2 -261q28 -5 76 -5
q76 0 127 14.5t73.5 34.5t36.5 50l15 -7q-37 -81 -49 -144q-20 9 -122 11q-61 2 -214 2q-64 0 -103 -4v6q33 3 40.5 62.5t7.5 241.5q0 181 -7.5 240t-40.5 62zM146 664q-5 10 -16 19q17 14 79.5 73t77.5 75q15 -16 77.5 -75.5t78.5 -72.5q-11 -9 -16 -19q-60 41 -140 82
q-84 -44 -141 -82z" />
    <glyph glyph-name="Edieresis" unicode="&#xcb;" 
d="M47 608v6q30 -3 53 -3q17 -1 50 -1q302 0 356 13q-16 -69 -16 -122v-20h-17q0 95 -187 95q-32 0 -74 -5q-7 -115 -7 -226q28 -4 64 -4q86 0 114 15t31 51h16q-8 -68 -8 -102q0 -14 1 -43t1 -30h-17q0 34 -27.5 54t-110.5 20q-42 0 -64 -1q0 -188 2 -261q28 -5 76 -5
q76 0 127 14.5t73.5 34.5t36.5 50l15 -7q-37 -81 -49 -144q-20 9 -122 11q-61 2 -214 2q-64 0 -103 -4v6q33 3 40.5 62.5t7.5 241.5q0 181 -7.5 240t-40.5 62zM200 664q-31 33 -66 61q31 26 65 66q34 -39 64 -59q-45 -43 -63 -68zM376 664q-29 33 -66 61q35 29 66 66
q34 -39 63 -59q-41 -38 -63 -68z" />
    <glyph glyph-name="Igrave" unicode="&#xcc;" horiz-adv-x="296" 
d="M45 -4v6q33 3 40 62.5t7 241.5q0 181 -7 240t-40 62v6q39 -4 103 -4q69 0 103 4v-6q-34 -3 -41.5 -62.5t-7.5 -239.5q0 -182 7.5 -241.5t41.5 -62.5v-6q-34 4 -103 4q-64 0 -103 -4zM233 664q-7 6 -46.5 32.5t-85 56t-56.5 37.5q29 27 56 66q21 -28 74 -91t75 -84
q-10 -6 -17 -17z" />
    <glyph glyph-name="Iacute" unicode="&#xcd;" horiz-adv-x="296" 
d="M45 -4v6q33 3 40 62.5t7 241.5q0 181 -7 240t-40 62v6q39 -4 103 -4q69 0 103 4v-6q-34 -3 -41.5 -62.5t-7.5 -239.5q0 -182 7.5 -241.5t41.5 -62.5v-6q-34 4 -103 4q-64 0 -103 -4zM62 664q-7 11 -17 17q22 21 75 84t74 91q27 -39 56 -66q-11 -8 -56.5 -37.5t-85 -56
t-46.5 -32.5z" />
    <glyph glyph-name="Icircumflex" unicode="&#xce;" horiz-adv-x="296" 
d="M45 -4v6q33 3 40 62.5t7 241.5q0 181 -7 240t-40 62v6q39 -4 103 -4q69 0 103 4v-6q-34 -3 -41.5 -62.5t-7.5 -239.5q0 -182 7.5 -241.5t41.5 -62.5v-6q-34 4 -103 4q-64 0 -103 -4zM7 664q-5 10 -16 19q17 14 79.5 73t77.5 75q15 -16 77.5 -75.5t78.5 -72.5
q-11 -9 -16 -19q-60 41 -140 82q-84 -44 -141 -82z" />
    <glyph glyph-name="Idieresis" unicode="&#xcf;" horiz-adv-x="296" 
d="M45 -4v6q33 3 40 62.5t7 241.5q0 181 -7 240t-40 62v6q39 -4 103 -4q69 0 103 4v-6q-34 -3 -41.5 -62.5t-7.5 -239.5q0 -182 7.5 -241.5t41.5 -62.5v-6q-34 4 -103 4q-64 0 -103 -4zM71 664q-31 33 -66 61q31 26 65 66q34 -39 64 -59q-45 -43 -63 -68zM247 664
q-29 33 -66 61q35 29 66 66q34 -39 63 -59q-41 -38 -63 -68z" />
    <glyph glyph-name="Eth" unicode="&#xd0;" horiz-adv-x="722" 
d="M674 349q0 -151 -109 -256.5t-276 -105.5q-21 0 -79 7q-64 6 -85 6q-43 0 -76 -4v6q32 3 39 59t7 226q-55 -2 -83 -5q7 18 15 53q41 -3 68 -3q0 162 -7.5 217.5t-38.5 58.5v6q21 -3 39 -3q12 -1 37 -1q47 0 121 7q82 6 111 6q50 0 91.5 -6t85 -23.5t73 -46.5t48.5 -79.5
t19 -118.5zM503 106q17 21 34 77.5t17 119.5q0 134 -67.5 207t-179.5 73q-44 0 -97 -15q-5 -75 -5 -236h52q45 0 90 3q-1 -3 -15 -52q-50 4 -74 4h-53q0 -58 2.5 -135.5t2.5 -79.5q58 -25 141 -25q105 0 152 59z" />
    <glyph glyph-name="Ntilde" unicode="&#xd1;" horiz-adv-x="741" 
d="M47 -4v6q22 3 34 23q17 26 27 191.5t10 255.5q0 39 -7 60q-3 8 -36 41.5t-49 34.5v6q40 -4 90 -4q52 0 93 4q85 -146 388 -483v124q0 249 -23 317q-13 30 -35 36v6q40 -4 93 -4q49 0 73 4v-6q-22 -5 -33 -30q-14 -33 -24.5 -195.5t-10.5 -330.5v-56q-13 4 -40 4
q-18 0 -33 -4q-382 451 -404 481h-2v-35q0 -34 1.5 -101.5t7.5 -170t15 -138.5q6 -26 31 -30v-6q-37 4 -84 4q-46 0 -82 -4zM235 716q-5 9 -16 19l9 11q9 10 13 14t14 13.5t17.5 14.5t18 11.5t20.5 9t21 2.5q22 0 60 -22q36 -23 56 -23q17 0 34.5 13.5t22.5 24.5
q4 -6 18 -18q-48 -77 -108 -77q-26 0 -63.5 19t-57.5 19q-10 0 -20.5 -4t-16.5 -8.5t-13.5 -11t-8.5 -7.5z" />
    <glyph glyph-name="Ograve" unicode="&#xd2;" horiz-adv-x="722" 
d="M315 -13q-124 0 -195 82t-71 235q0 49 17.5 112t48.5 102q16 21 118.5 63t180.5 42q53 0 96.5 -13.5t81.5 -44t59.5 -88t21.5 -137.5q0 -78 -25 -141.5t-63.5 -101.5t-87.5 -64t-94.5 -36t-87.5 -10zM169 344q0 -146 62.5 -216.5t158.5 -70.5q79 0 112 27q24 19 37.5 77
t13.5 133q0 140 -52 204.5t-172 64.5q-25 0 -59 -9.5t-46 -22.5q-21 -23 -38 -76.5t-17 -110.5zM446 664q-7 6 -46.5 32.5t-85 56t-56.5 37.5q29 27 56 66q21 -28 74 -91t75 -84q-10 -6 -17 -17z" />
    <glyph glyph-name="Oacute" unicode="&#xd3;" horiz-adv-x="722" 
d="M315 -13q-124 0 -195 82t-71 235q0 49 17.5 112t48.5 102q16 21 118.5 63t180.5 42q53 0 96.5 -13.5t81.5 -44t59.5 -88t21.5 -137.5q0 -78 -25 -141.5t-63.5 -101.5t-87.5 -64t-94.5 -36t-87.5 -10zM169 344q0 -146 62.5 -216.5t158.5 -70.5q79 0 112 27q24 19 37.5 77
t13.5 133q0 140 -52 204.5t-172 64.5q-25 0 -59 -9.5t-46 -22.5q-21 -23 -38 -76.5t-17 -110.5zM275 664q-7 11 -17 17q22 21 75 84t74 91q27 -39 56 -66q-11 -8 -56.5 -37.5t-85 -56t-46.5 -32.5z" />
    <glyph glyph-name="Ocircumflex" unicode="&#xd4;" horiz-adv-x="722" 
d="M315 -13q-124 0 -195 82t-71 235q0 49 17.5 112t48.5 102q16 21 118.5 63t180.5 42q53 0 96.5 -13.5t81.5 -44t59.5 -88t21.5 -137.5q0 -78 -25 -141.5t-63.5 -101.5t-87.5 -64t-94.5 -36t-87.5 -10zM169 344q0 -146 62.5 -216.5t158.5 -70.5q79 0 112 27q24 19 37.5 77
t13.5 133q0 140 -52 204.5t-172 64.5q-25 0 -59 -9.5t-46 -22.5q-21 -23 -38 -76.5t-17 -110.5zM220 664q-5 10 -16 19q17 14 79.5 73t77.5 75q15 -16 77.5 -75.5t78.5 -72.5q-11 -9 -16 -19q-60 41 -140 82q-84 -44 -141 -82z" />
    <glyph glyph-name="Otilde" unicode="&#xd5;" horiz-adv-x="722" 
d="M315 -13q-124 0 -195 82t-71 235q0 49 17.5 112t48.5 102q16 21 118.5 63t180.5 42q53 0 96.5 -13.5t81.5 -44t59.5 -88t21.5 -137.5q0 -78 -25 -141.5t-63.5 -101.5t-87.5 -64t-94.5 -36t-87.5 -10zM169 344q0 -146 62.5 -216.5t158.5 -70.5q79 0 112 27q24 19 37.5 77
t13.5 133q0 140 -52 204.5t-172 64.5q-25 0 -59 -9.5t-46 -22.5q-21 -23 -38 -76.5t-17 -110.5zM225 716q-5 9 -16 19l9 11q9 10 13 14t14 13.5t17.5 14.5t18 11.5t20.5 9t21 2.5q22 0 60 -22q36 -23 56 -23q17 0 34.5 13.5t22.5 24.5q4 -6 18 -18q-48 -77 -108 -77
q-26 0 -63.5 19t-57.5 19q-10 0 -20.5 -4t-16.5 -8.5t-13.5 -11t-8.5 -7.5z" />
    <glyph glyph-name="Odieresis" unicode="&#xd6;" horiz-adv-x="722" 
d="M315 -13q-124 0 -195 82t-71 235q0 49 17.5 112t48.5 102q16 21 118.5 63t180.5 42q53 0 96.5 -13.5t81.5 -44t59.5 -88t21.5 -137.5q0 -78 -25 -141.5t-63.5 -101.5t-87.5 -64t-94.5 -36t-87.5 -10zM169 344q0 -146 62.5 -216.5t158.5 -70.5q79 0 112 27q24 19 37.5 77
t13.5 133q0 140 -52 204.5t-172 64.5q-25 0 -59 -9.5t-46 -22.5q-21 -23 -38 -76.5t-17 -110.5zM274 664q-31 33 -66 61q31 26 65 66q34 -39 64 -59q-45 -43 -63 -68zM450 664q-29 33 -66 61q35 29 66 66q34 -39 63 -59q-41 -38 -63 -68z" />
    <glyph glyph-name="multiply" unicode="&#xd7;" horiz-adv-x="963" 
d="M346 34q-17 20 -55 56q18 14 45 40t58.5 57.5l38.5 38.5q-49 49 -142 136q44 42 55 56q12 -12 69 -73.5t66 -70.5q77 77 135 144q16 -21 55 -56q-93 -87 -142 -136q112 -112 142 -136q-31 -28 -55 -56q-70 79 -135 144q-65 -65 -135 -144z" />
    <glyph glyph-name="Oslash" unicode="&#xd8;" horiz-adv-x="722" 
d="M186 -61l-34 18l32 60q-67 35 -101 109.5t-34 177.5q0 138 73 221q14 18 128 62q33 13 51.5 19t50.5 11.5t68 5.5q38 0 76 -9l32 62l35 -17l-30 -57q139 -53 139 -262q0 -80 -26 -143.5t-64.5 -101.5t-88.5 -63.5t-94 -35t-84 -9.5q-55 0 -96 16zM238 120l218 418
q-42 25 -110 25q-38 0 -73 -9t-49 -23q-20 -20 -37.5 -75t-17.5 -111q0 -154 69 -225zM487 514l-219 -420q62 -37 122 -37q78 0 111 29q24 21 37.5 77.5t13.5 130.5q0 165 -65 220z" />
    <glyph glyph-name="Ugrave" unicode="&#xd9;" horiz-adv-x="741" 
d="M520 -13v109q-17 -11 -46 -34.5t-51.5 -41.5t-26.5 -20q-34 -13 -103 -13q-107 0 -152 51t-45 148q0 47 3.5 154t3.5 156q0 57 -7.5 82t-33.5 30v6q16 -1 51 -2.5t40 -1.5q46 0 71 4q-6 -28 -12 -147.5t-6 -182.5q0 -140 34 -171q42 -41 115 -41q58 0 106.5 24.5
t57.5 41.5t9 198q0 171 -6.5 218.5t-38.5 53.5v6q41 -4 93 -4q44 0 80 4q-18 -111 -18 -391q0 -60 1 -89t5 -65.5t14 -51.5t27 -15v-6h-26q-91 0 -139 -9zM416 664q-7 6 -46.5 32.5t-85 56t-56.5 37.5q29 27 56 66q21 -28 74 -91t75 -84q-10 -6 -17 -17z" />
    <glyph glyph-name="Uacute" unicode="&#xda;" horiz-adv-x="741" 
d="M520 -13v109q-17 -11 -46 -34.5t-51.5 -41.5t-26.5 -20q-34 -13 -103 -13q-107 0 -152 51t-45 148q0 47 3.5 154t3.5 156q0 57 -7.5 82t-33.5 30v6q16 -1 51 -2.5t40 -1.5q46 0 71 4q-6 -28 -12 -147.5t-6 -182.5q0 -140 34 -171q42 -41 115 -41q58 0 106.5 24.5
t57.5 41.5t9 198q0 171 -6.5 218.5t-38.5 53.5v6q41 -4 93 -4q44 0 80 4q-18 -111 -18 -391q0 -60 1 -89t5 -65.5t14 -51.5t27 -15v-6h-26q-91 0 -139 -9zM285 664q-7 11 -17 17q22 21 75 84t74 91q27 -39 56 -66q-11 -8 -56.5 -37.5t-85 -56t-46.5 -32.5z" />
    <glyph glyph-name="Ucircumflex" unicode="&#xdb;" horiz-adv-x="741" 
d="M520 -13v109q-17 -11 -46 -34.5t-51.5 -41.5t-26.5 -20q-34 -13 -103 -13q-107 0 -152 51t-45 148q0 47 3.5 154t3.5 156q0 57 -7.5 82t-33.5 30v6q16 -1 51 -2.5t40 -1.5q46 0 71 4q-6 -28 -12 -147.5t-6 -182.5q0 -140 34 -171q42 -41 115 -41q58 0 106.5 24.5
t57.5 41.5t9 198q0 171 -6.5 218.5t-38.5 53.5v6q41 -4 93 -4q44 0 80 4q-18 -111 -18 -391q0 -60 1 -89t5 -65.5t14 -51.5t27 -15v-6h-26q-91 0 -139 -9zM230 664q-5 10 -16 19q17 14 79.5 73t77.5 75q15 -16 77.5 -75.5t78.5 -72.5q-11 -9 -16 -19q-60 41 -140 82
q-84 -44 -141 -82z" />
    <glyph glyph-name="Udieresis" unicode="&#xdc;" horiz-adv-x="741" 
d="M520 -13v109q-17 -11 -46 -34.5t-51.5 -41.5t-26.5 -20q-34 -13 -103 -13q-107 0 -152 51t-45 148q0 47 3.5 154t3.5 156q0 57 -7.5 82t-33.5 30v6q16 -1 51 -2.5t40 -1.5q46 0 71 4q-6 -28 -12 -147.5t-6 -182.5q0 -140 34 -171q42 -41 115 -41q58 0 106.5 24.5
t57.5 41.5t9 198q0 171 -6.5 218.5t-38.5 53.5v6q41 -4 93 -4q44 0 80 4q-18 -111 -18 -391q0 -60 1 -89t5 -65.5t14 -51.5t27 -15v-6h-26q-91 0 -139 -9zM284 664q-31 33 -66 61q31 26 65 66q34 -39 64 -59q-45 -43 -63 -68zM460 664q-29 33 -66 61q35 29 66 66
q34 -39 63 -59q-41 -38 -63 -68z" />
    <glyph glyph-name="Yacute" unicode="&#xdd;" horiz-adv-x="648" 
d="M234 -4v6q33 3 40 53t7 202q-88 129 -121 177q-13 18 -35.5 51t-33.5 49t-26.5 36t-26 28.5t-18.5 9.5v6q12 0 53 -2t63 -2q57 0 101 4v-6q-1 0 -5 -2t-5.5 -2.5t-5 -2.5t-5 -3.5t-3.5 -4.5t-2.5 -6.5t-0.5 -8.5q0 -24 77 -141q76 -116 88 -130q33 53 75.5 144.5
t42.5 122.5q0 26 -30 34v6q37 -4 85 -4q22 0 82 4v-6q-19 -8 -35 -28q-31 -38 -109 -165q-67 -109 -95 -155q0 -154 7.5 -204.5t41.5 -53.5v-6q-34 4 -103 4q-64 0 -103 -4zM268 664q-7 11 -17 17q22 21 75 84t74 91q27 -39 56 -66q-11 -8 -56.5 -37.5t-85 -56t-46.5 -32.5z
" />
    <glyph glyph-name="Thorn" unicode="&#xde;" horiz-adv-x="593" 
d="M48 -4v6q33 1 40 58.5t7 245.5q0 186 -7 243t-40 59v6q45 -4 103 -4q56 0 103 4v-6q-23 0 -34.5 -12.5t-13 -27.5t-1.5 -48q9 0 69 5.5t91 5.5q94 -1 141 -40t47 -125q0 -51 -20 -90.5t-50.5 -63t-69.5 -39t-73.5 -21t-67.5 -5.5q-35 0 -67 5q0 -43 1 -63t5 -44.5
t14.5 -33.5t28.5 -9v-6q-47 4 -103 4q-58 0 -103 -4zM205 200q35 -13 93 -13q62 0 98.5 35t36.5 105q0 164 -164 164q-33 0 -64 -9v-282z" />
    <glyph glyph-name="germandbls" unicode="&#xdf;" horiz-adv-x="667" 
d="M101 559l66 55q1 1 11 10t15 13t17.5 13t21.5 14t23.5 12t28 10.5t30.5 6.5t35 3q68 0 108 -23q20 -10 33 -30.5t13 -45.5q0 -27 -13 -50t-31.5 -39t-37.5 -30.5t-32 -31.5t-13 -35q0 -32 25 -56.5t71 -47.5q3 -2 25 -13l27 -13.5t23 -13.5t23.5 -16.5t17.5 -17t16 -21.5
t8 -24t4 -29q0 -74 -67 -127q-58 -45 -139 -45q-29 0 -67.5 8.5t-55.5 15.5q6 63 6 135l17 2q7 -51 49.5 -86t91.5 -35q32 0 48.5 20t16.5 54q0 73 -93 119q-39 20 -55.5 29t-43 28t-37.5 39.5t-11 46.5q0 27 20.5 48.5t45.5 34.5t45.5 36t20.5 53q0 52 -37 76.5t-92 24.5
q-35 0 -61 -15q-12 -89 -12 -363q0 -175 5.5 -213.5t33.5 -42.5v-6q-30 4 -95 4q-60 0 -94 -4v6q32 6 38.5 69t6.5 274v214z" />
    <glyph glyph-name="agrave" unicode="&#xe0;" horiz-adv-x="537" 
d="M491 -4h-31q-98 0 -123 -9q4 32 4 94q-75 -45 -127 -94q-26 2 -49.5 7.5t-56.5 18t-53 39.5t-20 65q0 30 7.5 50.5t24.5 33t31 18.5t40 14q35 11 104.5 23t101.5 23q0 19 -2.5 32.5t-11.5 32.5t-32.5 29.5t-59.5 10.5q-81 0 -131 -47q-5 10 -14 22q25 17 55 48t45 53
q37 9 88 9q85 0 129 -32.5t44 -119.5q0 -25 -2.5 -74t-2.5 -74q0 -97 6.5 -129t35.5 -38v-6zM155 150q0 -33 27 -53t61 -20q36 0 63.5 17t32.5 35q5 16 5 110q-1 0 -30 -4.5t-59 -10.5t-50 -12q-50 -17 -50 -62zM354 520q-7 6 -46.5 32.5t-85 56t-56.5 37.5q29 27 56 66
q21 -28 74 -91t75 -84q-10 -6 -17 -17z" />
    <glyph glyph-name="aacute" unicode="&#xe1;" horiz-adv-x="537" 
d="M491 -4h-31q-98 0 -123 -9q4 32 4 94q-75 -45 -127 -94q-26 2 -49.5 7.5t-56.5 18t-53 39.5t-20 65q0 30 7.5 50.5t24.5 33t31 18.5t40 14q35 11 104.5 23t101.5 23q0 19 -2.5 32.5t-11.5 32.5t-32.5 29.5t-59.5 10.5q-81 0 -131 -47q-5 10 -14 22q25 17 55 48t45 53
q37 9 88 9q85 0 129 -32.5t44 -119.5q0 -25 -2.5 -74t-2.5 -74q0 -97 6.5 -129t35.5 -38v-6zM155 150q0 -33 27 -53t61 -20q36 0 63.5 17t32.5 35q5 16 5 110q-1 0 -30 -4.5t-59 -10.5t-50 -12q-50 -17 -50 -62zM213 520q-7 11 -17 17q22 21 75 84t74 91q27 -39 56 -66
q-11 -8 -56.5 -37.5t-85 -56t-46.5 -32.5z" />
    <glyph glyph-name="acircumflex" unicode="&#xe2;" horiz-adv-x="537" 
d="M491 -4h-31q-98 0 -123 -9q4 32 4 94q-75 -45 -127 -94q-26 2 -49.5 7.5t-56.5 18t-53 39.5t-20 65q0 30 7.5 50.5t24.5 33t31 18.5t40 14q35 11 104.5 23t101.5 23q0 19 -2.5 32.5t-11.5 32.5t-32.5 29.5t-59.5 10.5q-81 0 -131 -47q-5 10 -14 22q25 17 55 48t45 53
q37 9 88 9q85 0 129 -32.5t44 -119.5q0 -25 -2.5 -74t-2.5 -74q0 -97 6.5 -129t35.5 -38v-6zM155 150q0 -33 27 -53t61 -20q36 0 63.5 17t32.5 35q5 16 5 110q-1 0 -30 -4.5t-59 -10.5t-50 -12q-50 -17 -50 -62zM148 520q-5 10 -16 19q17 14 79.5 73t77.5 75
q15 -16 77.5 -75.5t78.5 -72.5q-11 -9 -16 -19q-60 41 -140 82q-84 -44 -141 -82z" />
    <glyph glyph-name="atilde" unicode="&#xe3;" horiz-adv-x="537" 
d="M491 -4h-31q-98 0 -123 -9q4 32 4 94q-75 -45 -127 -94q-26 2 -49.5 7.5t-56.5 18t-53 39.5t-20 65q0 30 7.5 50.5t24.5 33t31 18.5t40 14q35 11 104.5 23t101.5 23q0 19 -2.5 32.5t-11.5 32.5t-32.5 29.5t-59.5 10.5q-81 0 -131 -47q-5 10 -14 22q25 17 55 48t45 53
q37 9 88 9q85 0 129 -32.5t44 -119.5q0 -25 -2.5 -74t-2.5 -74q0 -97 6.5 -129t35.5 -38v-6zM155 150q0 -33 27 -53t61 -20q36 0 63.5 17t32.5 35q5 16 5 110q-1 0 -30 -4.5t-59 -10.5t-50 -12q-50 -17 -50 -62zM133 572q-5 9 -16 19l9 11q9 10 13 14t14 13.5t17.5 14.5
t18 11.5t20.5 9t21 2.5q22 0 60 -22q36 -23 56 -23q17 0 34.5 13.5t22.5 24.5q4 -6 18 -18q-48 -77 -108 -77q-26 0 -63.5 19t-57.5 19q-10 0 -20.5 -4t-16.5 -8.5t-13.5 -11t-8.5 -7.5z" />
    <glyph glyph-name="adieresis" unicode="&#xe4;" horiz-adv-x="537" 
d="M491 -4h-31q-98 0 -123 -9q4 32 4 94q-75 -45 -127 -94q-26 2 -49.5 7.5t-56.5 18t-53 39.5t-20 65q0 30 7.5 50.5t24.5 33t31 18.5t40 14q35 11 104.5 23t101.5 23q0 19 -2.5 32.5t-11.5 32.5t-32.5 29.5t-59.5 10.5q-81 0 -131 -47q-5 10 -14 22q25 17 55 48t45 53
q37 9 88 9q85 0 129 -32.5t44 -119.5q0 -25 -2.5 -74t-2.5 -74q0 -97 6.5 -129t35.5 -38v-6zM155 150q0 -33 27 -53t61 -20q36 0 63.5 17t32.5 35q5 16 5 110q-1 0 -30 -4.5t-59 -10.5t-50 -12q-50 -17 -50 -62zM182 520q-31 33 -66 61q31 26 65 66q34 -39 64 -59
q-45 -43 -63 -68zM358 520q-29 33 -66 61q35 29 66 66q34 -39 63 -59q-41 -38 -63 -68z" />
    <glyph glyph-name="aring" unicode="&#xe5;" horiz-adv-x="537" 
d="M491 -4h-31q-98 0 -123 -9q4 32 4 94q-75 -45 -127 -94q-26 2 -49.5 7.5t-56.5 18t-53 39.5t-20 65q0 30 7.5 50.5t24.5 33t31 18.5t40 14q35 11 104.5 23t101.5 23q0 19 -2.5 32.5t-11.5 32.5t-32.5 29.5t-59.5 10.5q-81 0 -131 -47q-5 10 -14 22q25 17 55 48t45 53
q37 9 88 9q85 0 129 -32.5t44 -119.5q0 -25 -2.5 -74t-2.5 -74q0 -97 6.5 -129t35.5 -38v-6zM155 150q0 -33 27 -53t61 -20q36 0 63.5 17t32.5 35q5 16 5 110q-1 0 -30 -4.5t-59 -10.5t-50 -12q-50 -17 -50 -62zM269 528q-36 0 -62.5 26.5t-26.5 61.5t26.5 61.5t62.5 26.5
q35 0 61.5 -26.5t26.5 -61.5t-26.5 -61.5t-61.5 -26.5zM221 616q0 -19 14.5 -33t33.5 -14t33 14t14 33t-14 33t-33 14q-20 0 -34 -14t-14 -33z" />
    <glyph glyph-name="ae" unicode="&#xe6;" horiz-adv-x="778" 
d="M733 257h-295q0 -68 44 -121.5t139 -53.5q56 0 100 25q1 -11 7 -22q-80 -39 -132 -98q-102 0 -161 44q-46 34 -63 73q-36 -19 -83 -53.5t-76 -63.5q-17 1 -36 4t-45.5 11.5t-46.5 22t-34.5 38.5t-14.5 56q0 87 109 114q32 8 97.5 22t97.5 22q0 49 -27 78.5t-84 29.5
q-38 0 -72 -15t-51 -32q-6 10 -14 20q18 12 50.5 46.5t47.5 55.5q42 10 82 10q114 0 135 -61q27 26 74.5 43.5t85.5 17.5q73 0 119.5 -53t46.5 -160zM156 148q0 -29 25 -49.5t63 -20.5q22 0 45 11.5t35 24.5q18 21 18 123q-45 0 -94 -14q-50 -14 -71 -28.5t-21 -46.5z
M438 287h171q14 0 14 12q0 38 -28.5 84.5t-75.5 46.5q-45 0 -62 -43q-13 -32 -19 -100z" />
    <glyph glyph-name="ccedilla" unicode="&#xe7;" horiz-adv-x="481" 
d="M264 -8q-7 -14 -15.5 -30.5t-10.5 -20.5q18 6 40 6q33 0 57.5 -13t24.5 -39q0 -36 -34.5 -58t-84.5 -22q-58 0 -125 35q8 12 15 27q12 -9 40 -18t53 -9t40.5 8.5t15.5 22.5t-16 22.5t-38 8.5q-27 0 -41 -7q19 26 51 93q-89 22 -140 89t-51 152q0 69 48 124t110 81t119 26
q64 0 127 -29q-43 -60 -61 -136l-18 4q0 2 1.5 10t1.5 12q0 34 -40 59t-89 25q-27 0 -39 -9q-17 -12 -33.5 -55t-16.5 -84q0 -86 58.5 -135.5t136.5 -49.5q40 0 85 19q2 -9 9 -20q-74 -36 -130 -94q-30 0 -50 5z" />
    <glyph glyph-name="egrave" unicode="&#xe8;" horiz-adv-x="500" 
d="M458 260h-293q0 -76 43 -127t130 -51q68 0 109 26q3 -12 8 -22q-86 -41 -133 -99q-53 0 -106.5 16.5t-86.5 43.5q-74 61 -74 190q0 105 68 169t172 64q20 0 39.5 -4.5t42.5 -18.5t40.5 -36t29 -61t11.5 -90zM165 290h160q15 0 19 2t4 11q0 21 -7.5 47t-33.5 53t-65 27
q-40 0 -57 -36q-20 -40 -20 -104zM335 520q-7 6 -46.5 32.5t-85 56t-56.5 37.5q29 27 56 66q21 -28 74 -91t75 -84q-10 -6 -17 -17z" />
    <glyph glyph-name="eacute" unicode="&#xe9;" horiz-adv-x="500" 
d="M458 260h-293q0 -76 43 -127t130 -51q68 0 109 26q3 -12 8 -22q-86 -41 -133 -99q-53 0 -106.5 16.5t-86.5 43.5q-74 61 -74 190q0 105 68 169t172 64q20 0 39.5 -4.5t42.5 -18.5t40.5 -36t29 -61t11.5 -90zM165 290h160q15 0 19 2t4 11q0 21 -7.5 47t-33.5 53t-65 27
q-40 0 -57 -36q-20 -40 -20 -104zM184 520q-7 11 -17 17q22 21 75 84t74 91q27 -39 56 -66q-11 -8 -56.5 -37.5t-85 -56t-46.5 -32.5z" />
    <glyph glyph-name="ecircumflex" unicode="&#xea;" horiz-adv-x="500" 
d="M458 260h-293q0 -76 43 -127t130 -51q68 0 109 26q3 -12 8 -22q-86 -41 -133 -99q-53 0 -106.5 16.5t-86.5 43.5q-74 61 -74 190q0 105 68 169t172 64q20 0 39.5 -4.5t42.5 -18.5t40.5 -36t29 -61t11.5 -90zM165 290h160q15 0 19 2t4 11q0 21 -7.5 47t-33.5 53t-65 27
q-40 0 -57 -36q-20 -40 -20 -104zM129 520q-5 10 -16 19q17 14 79.5 73t77.5 75q15 -16 77.5 -75.5t78.5 -72.5q-11 -9 -16 -19q-60 41 -140 82q-84 -44 -141 -82z" />
    <glyph glyph-name="edieresis" unicode="&#xeb;" horiz-adv-x="500" 
d="M458 260h-293q0 -76 43 -127t130 -51q68 0 109 26q3 -12 8 -22q-86 -41 -133 -99q-53 0 -106.5 16.5t-86.5 43.5q-74 61 -74 190q0 105 68 169t172 64q20 0 39.5 -4.5t42.5 -18.5t40.5 -36t29 -61t11.5 -90zM165 290h160q15 0 19 2t4 11q0 21 -7.5 47t-33.5 53t-65 27
q-40 0 -57 -36q-20 -40 -20 -104zM163 520q-31 33 -66 61q31 26 65 66q34 -39 64 -59q-45 -43 -63 -68zM339 520q-29 33 -66 61q35 29 66 66q34 -39 63 -59q-41 -38 -63 -68z" />
    <glyph glyph-name="igrave" unicode="&#xec;" horiz-adv-x="296" 
d="M61 -4v6q28 4 33.5 43t5.5 185q0 129 -7 175t-38 50v6q2 0 5.5 -0.5t9 -1t10.5 -0.5q26 -2 60 -2q46 0 75 13q-10 -93 -10 -240q0 -145 5 -182t31 -46v-6q-40 4 -90 4q-51 0 -90 -4zM233 520q-7 6 -46.5 32.5t-85 56t-56.5 37.5q29 27 56 66q21 -28 74 -91t75 -84
q-10 -6 -17 -17z" />
    <glyph glyph-name="iacute" unicode="&#xed;" horiz-adv-x="296" 
d="M61 -4v6q28 4 33.5 43t5.5 185q0 129 -7 175t-38 50v6q2 0 5.5 -0.5t9 -1t10.5 -0.5q26 -2 60 -2q46 0 75 13q-10 -93 -10 -240q0 -145 5 -182t31 -46v-6q-40 4 -90 4q-51 0 -90 -4zM92 520q-7 11 -17 17q22 21 75 84t74 91q27 -39 56 -66q-11 -8 -56.5 -37.5t-85 -56
t-46.5 -32.5z" />
    <glyph glyph-name="icircumflex" unicode="&#xee;" horiz-adv-x="296" 
d="M61 -4v6q28 4 33.5 43t5.5 185q0 129 -7 175t-38 50v6q2 0 5.5 -0.5t9 -1t10.5 -0.5q26 -2 60 -2q46 0 75 13q-10 -93 -10 -240q0 -145 5 -182t31 -46v-6q-40 4 -90 4q-51 0 -90 -4zM7 520q-5 10 -16 19q17 14 79.5 73t77.5 75q15 -16 77.5 -75.5t78.5 -72.5
q-11 -9 -16 -19q-60 41 -140 82q-84 -44 -141 -82z" />
    <glyph glyph-name="idieresis" unicode="&#xef;" horiz-adv-x="296" 
d="M61 -4v6q28 4 33.5 43t5.5 185q0 129 -7 175t-38 50v6q2 0 5.5 -0.5t9 -1t10.5 -0.5q26 -2 60 -2q46 0 75 13q-10 -93 -10 -240q0 -145 5 -182t31 -46v-6q-40 4 -90 4q-51 0 -90 -4zM61 520q-31 33 -66 61q31 26 65 66q34 -39 64 -59q-45 -43 -63 -68zM237 520
q-29 33 -66 61q35 29 66 66q34 -39 63 -59q-41 -38 -63 -68z" />
    <glyph glyph-name="eth" unicode="&#xf0;" horiz-adv-x="556" 
d="M349 622q78 -62 120.5 -158.5t42.5 -193.5q0 -110 -32 -160q-16 -25 -102 -83q-35 -24 -65.5 -32t-74.5 -8q-80 0 -133.5 62t-53.5 164q0 58 18.5 108t39.5 63q48 31 126 66q48 22 71 20q27 0 58 -10q-20 39 -44.5 64.5t-62.5 55.5q-55 -23 -130 -68l-44 34q55 18 140 58
q-69 45 -132 62l110 42q40 -14 110 -60q79 36 116 60l38 -36q-46 -16 -116 -50zM197 395q-16 -9 -26 -55.5t-10 -99.5q0 -96 45 -139.5t121 -43.5q23 0 42 14t25 41q12 50 12 101q0 114 -28.5 155.5t-113.5 41.5q-52 0 -67 -15z" />
    <glyph glyph-name="ntilde" unicode="&#xf1;" 
d="M59 -4v6q28 9 33.5 46t5.5 182q0 129 -7 175t-38 50v6q1 0 29 -2q30 -2 53 -2q47 0 73 13q-5 -30 -5 -99q58 41 89 93q20 6 57 6q50 0 91 -28t41 -97v-115q0 -145 5 -182t31 -46v-6q-40 4 -90 4q-51 0 -90 -4v6q28 9 33.5 46t5.5 182q0 25 -0.5 39t-4.5 37.5t-12 36
t-23.5 22.5t-38.5 10q-18 0 -41 -6t-32 -15q-21 -23 -21 -124q0 -145 5 -182t31 -46v-6q-40 4 -90 4q-51 0 -90 -4zM151 572q-5 9 -16 19l9 11q9 10 13 14t14 13.5t17.5 14.5t18 11.5t20.5 9t21 2.5q22 0 60 -22q36 -23 56 -23q17 0 34.5 13.5t22.5 24.5q4 -6 18 -18
q-48 -77 -108 -77q-26 0 -63.5 19t-57.5 19q-10 0 -20.5 -4t-16.5 -8.5t-13.5 -11t-8.5 -7.5z" />
    <glyph glyph-name="ograve" unicode="&#xf2;" horiz-adv-x="556" 
d="M482 117q-5 -9 -19.5 -22t-27 -22t-37.5 -26.5t-34 -23.5q-51 -36 -107 -36q-102 0 -156.5 61t-54.5 165q0 58 18.5 108t39.5 63q20 13 126 66q41 20 80 20q102 0 150.5 -52t48.5 -160q0 -15 -8 -68t-19 -73zM192 395q-16 -13 -26 -58t-10 -97q0 -96 45 -139.5t121 -43.5
q33 0 46 11t21 44q10 42 10 101q0 51 -10 91.5t-43 73t-87 32.5q-47 0 -67 -15zM363 520q-7 6 -46.5 32.5t-85 56t-56.5 37.5q29 27 56 66q21 -28 74 -91t75 -84q-10 -6 -17 -17z" />
    <glyph glyph-name="oacute" unicode="&#xf3;" horiz-adv-x="556" 
d="M482 117q-5 -9 -19.5 -22t-27 -22t-37.5 -26.5t-34 -23.5q-51 -36 -107 -36q-102 0 -156.5 61t-54.5 165q0 58 18.5 108t39.5 63q20 13 126 66q41 20 80 20q102 0 150.5 -52t48.5 -160q0 -15 -8 -68t-19 -73zM192 395q-16 -13 -26 -58t-10 -97q0 -96 45 -139.5t121 -43.5
q33 0 46 11t21 44q10 42 10 101q0 51 -10 91.5t-43 73t-87 32.5q-47 0 -67 -15zM192 520q-7 11 -17 17q22 21 75 84t74 91q27 -39 56 -66q-11 -8 -56.5 -37.5t-85 -56t-46.5 -32.5z" />
    <glyph glyph-name="ocircumflex" unicode="&#xf4;" horiz-adv-x="556" 
d="M482 117q-5 -9 -19.5 -22t-27 -22t-37.5 -26.5t-34 -23.5q-51 -36 -107 -36q-102 0 -156.5 61t-54.5 165q0 58 18.5 108t39.5 63q20 13 126 66q41 20 80 20q102 0 150.5 -52t48.5 -160q0 -15 -8 -68t-19 -73zM192 395q-16 -13 -26 -58t-10 -97q0 -96 45 -139.5t121 -43.5
q33 0 46 11t21 44q10 42 10 101q0 51 -10 91.5t-43 73t-87 32.5q-47 0 -67 -15zM137 520q-5 10 -16 19q17 14 79.5 73t77.5 75q15 -16 77.5 -75.5t78.5 -72.5q-11 -9 -16 -19q-60 41 -140 82q-84 -44 -141 -82z" />
    <glyph glyph-name="otilde" unicode="&#xf5;" horiz-adv-x="556" 
d="M482 117q-5 -9 -19.5 -22t-27 -22t-37.5 -26.5t-34 -23.5q-51 -36 -107 -36q-102 0 -156.5 61t-54.5 165q0 58 18.5 108t39.5 63q20 13 126 66q41 20 80 20q102 0 150.5 -52t48.5 -160q0 -15 -8 -68t-19 -73zM192 395q-16 -13 -26 -58t-10 -97q0 -96 45 -139.5t121 -43.5
q33 0 46 11t21 44q10 42 10 101q0 51 -10 91.5t-43 73t-87 32.5q-47 0 -67 -15zM142 572q-5 9 -16 19l9 11q9 10 13 14t14 13.5t17.5 14.5t18 11.5t20.5 9t21 2.5q22 0 60 -22q36 -23 56 -23q17 0 34.5 13.5t22.5 24.5q4 -6 18 -18q-48 -77 -108 -77q-26 0 -63.5 19
t-57.5 19q-10 0 -20.5 -4t-16.5 -8.5t-13.5 -11t-8.5 -7.5z" />
    <glyph glyph-name="odieresis" unicode="&#xf6;" horiz-adv-x="556" 
d="M482 117q-5 -9 -19.5 -22t-27 -22t-37.5 -26.5t-34 -23.5q-51 -36 -107 -36q-102 0 -156.5 61t-54.5 165q0 58 18.5 108t39.5 63q20 13 126 66q41 20 80 20q102 0 150.5 -52t48.5 -160q0 -15 -8 -68t-19 -73zM192 395q-16 -13 -26 -58t-10 -97q0 -96 45 -139.5t121 -43.5
q33 0 46 11t21 44q10 42 10 101q0 51 -10 91.5t-43 73t-87 32.5q-47 0 -67 -15zM191 520q-31 33 -66 61q31 26 65 66q34 -39 64 -59q-45 -43 -63 -68zM367 520q-29 33 -66 61q35 29 66 66q34 -39 63 -59q-41 -38 -63 -68z" />
    <glyph glyph-name="divide" unicode="&#xf7;" horiz-adv-x="963" 
d="M483 -13q-24 28 -85 78q14 14 84 83q8 -7 25.5 -24t31.5 -29.5t25 -19.5q-55 -53 -81 -88zM251 188q1 13 1 39q0 6 -0.5 19.5t-0.5 20.5q54 -5 230 -5t230 5q0 -5 -0.5 -19t-0.5 -21t0.5 -20.5t0.5 -18.5q-63 6 -230 6q-165 0 -230 -6zM483 307q-24 28 -85 78
q14 13 84 83q8 -7 25.5 -24t31.5 -30t25 -19q-58 -58 -81 -88z" />
    <glyph glyph-name="oslash" unicode="&#xf8;" horiz-adv-x="556" 
d="M68 -18l42 57q-64 56 -64 174q0 58 18.5 108.5t39.5 63.5q71 44 126 67q45 18 80 18q64 0 106 -24l42 57q16 -15 31 -24l-40 -53q60 -45 60 -168q0 -27 -9 -79.5t-23 -69.5q-19 -23 -113 -87q-50 -35 -107 -35q-73 0 -120 30l-42 -56q-9 9 -27 21zM183 136l171 229
q-29 45 -89 45q-52 0 -73 -14q-16 -11 -26 -57t-10 -98q0 -74 27 -105zM377 331l-173 -227q38 -47 115 -47q49 0 65 38q15 34 15 107q0 85 -22 129z" />
    <glyph glyph-name="ugrave" unicode="&#xf9;" horiz-adv-x="593" 
d="M537 -4h-22q-114 0 -132 -9q3 21 3 103q-81 -57 -121 -103q-30 0 -48.5 1.5t-45 12t-44.5 30.5q-34 38 -34 122q0 9 1 52.5t1 72.5q0 109 -5.5 140t-31.5 37v6h39q87 0 118 9q-15 -95 -15 -226q0 -97 19 -124q22 -33 71 -33q47 0 82 30q19 17 19 134q0 140 -5.5 168
t-37.5 36v6h39q98 0 121 9q-3 -25 -7.5 -129t-4.5 -175q0 -91 6.5 -125.5t34.5 -38.5v-6zM352 520q-7 6 -46.5 32.5t-85 56t-56.5 37.5q29 27 56 66q21 -28 74 -91t75 -84q-10 -6 -17 -17z" />
    <glyph glyph-name="uacute" unicode="&#xfa;" horiz-adv-x="593" 
d="M537 -4h-22q-114 0 -132 -9q3 21 3 103q-81 -57 -121 -103q-30 0 -48.5 1.5t-45 12t-44.5 30.5q-34 38 -34 122q0 9 1 52.5t1 72.5q0 109 -5.5 140t-31.5 37v6h39q87 0 118 9q-15 -95 -15 -226q0 -97 19 -124q22 -33 71 -33q47 0 82 30q19 17 19 134q0 140 -5.5 168
t-37.5 36v6h39q98 0 121 9q-3 -25 -7.5 -129t-4.5 -175q0 -91 6.5 -125.5t34.5 -38.5v-6zM241 520q-7 11 -17 17q22 21 75 84t74 91q27 -39 56 -66q-11 -8 -56.5 -37.5t-85 -56t-46.5 -32.5z" />
    <glyph glyph-name="ucircumflex" unicode="&#xfb;" horiz-adv-x="593" 
d="M537 -4h-22q-114 0 -132 -9q3 21 3 103q-81 -57 -121 -103q-30 0 -48.5 1.5t-45 12t-44.5 30.5q-34 38 -34 122q0 9 1 52.5t1 72.5q0 109 -5.5 140t-31.5 37v6h39q87 0 118 9q-15 -95 -15 -226q0 -97 19 -124q22 -33 71 -33q47 0 82 30q19 17 19 134q0 140 -5.5 168
t-37.5 36v6h39q98 0 121 9q-3 -25 -7.5 -129t-4.5 -175q0 -91 6.5 -125.5t34.5 -38.5v-6zM156 520q-5 10 -16 19q17 14 79.5 73t77.5 75q15 -16 77.5 -75.5t78.5 -72.5q-11 -9 -16 -19q-60 41 -140 82q-84 -44 -141 -82z" />
    <glyph glyph-name="udieresis" unicode="&#xfc;" horiz-adv-x="593" 
d="M537 -4h-22q-114 0 -132 -9q3 21 3 103q-81 -57 -121 -103q-30 0 -48.5 1.5t-45 12t-44.5 30.5q-34 38 -34 122q0 9 1 52.5t1 72.5q0 109 -5.5 140t-31.5 37v6h39q87 0 118 9q-15 -95 -15 -226q0 -97 19 -124q22 -33 71 -33q47 0 82 30q19 17 19 134q0 140 -5.5 168
t-37.5 36v6h39q98 0 121 9q-3 -25 -7.5 -129t-4.5 -175q0 -91 6.5 -125.5t34.5 -38.5v-6zM210 520q-31 33 -66 61q31 26 65 66q34 -39 64 -59q-45 -43 -63 -68zM386 520q-29 33 -66 61q35 29 66 66q34 -39 63 -59q-41 -38 -63 -68z" />
    <glyph glyph-name="yacute" unicode="&#xfd;" horiz-adv-x="537" 
d="M370 455v6q2 -1 8 -1t9 -1q16 -2 33 -2q72 0 109 13q-4 -6 -14 -28t-32 -67.5t-41 -84.5q-87 -177 -135.5 -294.5t-82.5 -236.5q-15 4 -61 4q-45 0 -66 -4q101 107 172 231h-34q-19 40 -89 211q-83 199 -85 204q-13 28 -21.5 37.5t-19.5 12.5v6l16 -2q18 -2 30 -2
q77 0 112 13q29 -128 133 -382q23 56 53 159.5t30 158.5q0 40 -24 49zM203 520q-7 11 -17 17q22 21 75 84t74 91q27 -39 56 -66q-11 -8 -56.5 -37.5t-85 -56t-46.5 -32.5z" />
    <glyph glyph-name="thorn" unicode="&#xfe;" 
d="M51 -241v6q27 4 33 50t6 178q0 377 -8 525t-37 172v6q3 0 13 -1t28.5 -2t43.5 -1q48 0 75 7q-1 -31 -2.5 -138.5t-2.5 -184.5q64 34 104 88q20 6 40 6q91 0 140 -50.5t49 -147.5q0 -67 -30.5 -122.5t-80.5 -89.5q-95 -65 -227 -65q0 -133 5.5 -179.5t30.5 -50.5v-6
q-60 4 -91 4t-89 -4zM195 196v-127q42 -24 103 -24q60 0 92.5 50.5t32.5 126.5q0 74 -30 111t-111 37q-41 0 -63 -24q-24 -26 -24 -150z" />
    <glyph glyph-name="ydieresis" unicode="&#xff;" horiz-adv-x="537" 
d="M370 455v6q2 -1 8 -1t9 -1q16 -2 33 -2q72 0 109 13q-4 -6 -14 -28t-32 -67.5t-41 -84.5q-87 -177 -135.5 -294.5t-82.5 -236.5q-15 4 -61 4q-45 0 -66 -4q101 107 172 231h-34q-19 40 -89 211q-83 199 -85 204q-13 28 -21.5 37.5t-19.5 12.5v6l16 -2q18 -2 30 -2
q77 0 112 13q29 -128 133 -382q23 56 53 159.5t30 158.5q0 40 -24 49zM202 520q-31 33 -66 61q31 26 65 66q34 -39 64 -59q-45 -43 -63 -68zM378 520q-29 33 -66 61q35 29 66 66q34 -39 63 -59q-41 -38 -63 -68z" />
    <glyph glyph-name="dotlessi" unicode="&#x131;" horiz-adv-x="296" 
d="M61 -4v6q28 4 33.5 43t5.5 185q0 129 -7 175t-38 50v6q2 0 5.5 -0.5t9 -1t10.5 -0.5q26 -2 60 -2q46 0 75 13q-10 -93 -10 -240q0 -145 5 -182t31 -46v-6q-40 4 -90 4q-51 0 -90 -4z" />
    <glyph glyph-name="Lslash" unicode="&#x141;" horiz-adv-x="500" 
d="M25 249l66 31q0 187 -8.5 255.5t-39.5 72.5v6q39 -4 103 -4q68 0 103 4v-6q-33 -10 -40.5 -66t-7.5 -211q5 3 65.5 29t92.5 47q-10 -23 -10 -68l-148 -68q0 -161 6 -227q32 -5 46 -5q43 0 81.5 10t73 39t44.5 74l18 -5q-30 -95 -30 -170q-16 9 -104 11q-52 2 -184 2
q-65 0 -105 -4v6q32 4 38 37.5t6 180.5q-57 -22 -70 -31q4 18 4 60z" />
    <glyph glyph-name="lslash" unicode="&#x142;" horiz-adv-x="296" 
d="M59 -4v6q26 6 32.5 66.5t6.5 227.5q-31 -10 -94 -46q4 16 4 60q29 9 90 41q0 193 -7 263t-38 76v6q1 0 30 -2t55 -2q48 0 75 7q-10 -160 -10 -298q4 3 26 15t45 25t36 22q-7 -20 -7 -60q-10 -4 -46 -26.5t-54 -30.5q0 -200 5.5 -269t30.5 -75v-6q-40 4 -90 4
q-51 0 -90 -4z" />
    <glyph glyph-name="OE" unicode="&#x152;" horiz-adv-x="1000" 
d="M169 331q0 -58 13.5 -105t33 -76t47 -50t50 -31t48.5 -15.5t36 -6t18 -0.5q58 0 96 32q15 13 15 224q0 177 -5 206q-5 26 -51.5 40t-116.5 14q-68 0 -110 -22q-34 -18 -54 -85.5t-20 -124.5zM951 138l15 -7q-37 -81 -49 -144q-30 13 -336 13q-43 0 -134 -6.5t-124 -6.5
q-129 0 -201.5 79t-72.5 235q0 60 21 122t39 84q28 34 122.5 75t154.5 41q46 0 115 -6.5t80 -6.5q302 0 356 13q-16 -69 -16 -122v-20h-17q0 94 -187 94q-41 0 -74 -4q-7 -115 -7 -226q28 -4 64 -4q86 0 114 15t31 51h16q-8 -68 -8 -102q0 -14 1 -43t1 -30h-17
q0 34 -27.5 54t-110.5 20q-42 0 -64 -1q0 -188 2 -261q28 -5 76 -5q76 0 127 14.5t73.5 34.5t36.5 50z" />
    <glyph glyph-name="oe" unicode="&#x153;" horiz-adv-x="815" 
d="M772 260h-288q0 -77 45 -127.5t133 -50.5q32 0 61 9.5t37 16.5q2 -8 8 -22q-82 -39 -133 -99q-45 0 -79.5 8t-58 24t-37 29.5t-28.5 34.5q-19 -19 -67 -53q-60 -43 -113 -43q-40 0 -73 11.5t-53.5 28.5t-36 41t-23 45t-11.5 44.5t-5 35.5t-1 22q0 99 48 163q2 3 71 44
q81 48 132 48q107 0 146 -66q29 31 74.5 48.5t87.5 17.5q85 0 124.5 -59.5t39.5 -150.5zM159 253q0 -196 160 -196q31 0 45 16q24 18 24 144q0 193 -135 193q-44 0 -62 -19q-13 -14 -21 -48.5t-9.5 -55.5t-1.5 -34zM484 290h165q7 0 10 2t3 12q0 21 -8.5 48t-32.5 52.5
t-58 25.5q-19 0 -35.5 -13t-22.5 -26q-21 -48 -21 -101z" />
    <glyph glyph-name="Scaron" unicode="&#x160;" horiz-adv-x="519" 
d="M446 460l-19 -1q0 44 -44 84t-124 40q-99 0 -99 -88q0 -13 2.5 -25t9 -22.5t11.5 -18.5t17.5 -17t18 -13.5t22.5 -13t21.5 -11t24 -11.5t22.5 -10q52 -24 79 -38.5t53 -35.5t35.5 -44.5t9.5 -55.5q0 -29 -13.5 -60t-40 -61.5t-76.5 -50.5t-114 -20q-73 0 -196 28
q9 52 9 106q0 21 -3 60l19 1q2 -60 58.5 -107.5t139.5 -47.5q107 0 107 100q0 32 -11 54t-34 36.5t-46 24.5t-60 25t-63 29q-59 32 -85.5 69t-26.5 91q0 80 67 123.5t171 43.5q36 0 90 -8q42 -6 56 -6q9 0 21 2q-13 -43 -13 -94q0 -32 4 -57zM260 664q-15 16 -77.5 75
t-79.5 73q11 9 16 19q46 -31 141 -82q80 41 140 82q5 -8 16 -19q-17 -14 -79.5 -73.5t-76.5 -74.5z" />
    <glyph glyph-name="scaron" unicode="&#x161;" horiz-adv-x="463" 
d="M365 336v12q0 34 -41 55.5t-92 21.5q-38 0 -48 -11q-10 -12 -10 -43q0 -24 7.5 -40t28 -28.5t32 -17t43.5 -15.5q7 -2 29 -9.5t29 -10.5t23.5 -11t22.5 -15t15 -18.5t12 -26t3 -33.5q0 -46 -17 -75q-6 -9 -84 -55q-50 -29 -117 -29q-41 0 -85.5 11t-54.5 18q9 42 9 81
q0 10 -1 28.5t-1 21.5q6 0 18 2q2 -36 27 -62q21 -22 60.5 -38.5t70.5 -16.5q43 0 59 13q11 9 11 49q0 38 -21 57q-6 5 -30 17q-6 3 -36.5 12t-62 21t-47.5 23q-48 33 -48 103q0 58 17 75q4 4 64 32q77 36 126 36q24 0 68.5 -7.5t46.5 -7.5q-9 -36 -9 -82q0 -17 2 -35
q-7 0 -19 -2zM232 520q-15 16 -77.5 75t-79.5 73q11 9 16 19q46 -31 141 -82q80 41 140 82q5 -8 16 -19q-17 -14 -79.5 -73.5t-76.5 -74.5z" />
    <glyph glyph-name="Ydieresis" unicode="&#x178;" horiz-adv-x="648" 
d="M234 -4v6q33 3 40 53t7 202q-88 129 -121 177q-13 18 -35.5 51t-33.5 49t-26.5 36t-26 28.5t-18.5 9.5v6q12 0 53 -2t63 -2q57 0 101 4v-6q-1 0 -5 -2t-5.5 -2.5t-5 -2.5t-5 -3.5t-3.5 -4.5t-2.5 -6.5t-0.5 -8.5q0 -24 77 -141q76 -116 88 -130q33 53 75.5 144.5
t42.5 122.5q0 26 -30 34v6q37 -4 85 -4q22 0 82 4v-6q-19 -8 -35 -28q-31 -38 -109 -165q-67 -109 -95 -155q0 -154 7.5 -204.5t41.5 -53.5v-6q-34 4 -103 4q-64 0 -103 -4zM257 664q-31 33 -66 61q31 26 65 66q34 -39 64 -59q-45 -43 -63 -68zM433 664q-29 33 -66 61
q35 29 66 66q34 -39 63 -59q-41 -38 -63 -68z" />
    <glyph glyph-name="Zcaron" unicode="&#x17d;" horiz-adv-x="648" 
d="M567 174h20q-19 -93 -19 -183q-27 5 -80 8q-37 1 -182 1q-144 0 -280 -4q65 75 203.5 275t197.5 297q-23 3 -62 3q-128 0 -199 -36q-38 -19 -55.5 -38.5t-22.5 -53.5l-19 3q17 60 21 174q19 -6 59 -9q30 -1 147 -1q215 0 315 4q-71 -85 -205.5 -277.5t-193.5 -294.5
q42 -3 85 -3q141 0 208 41q56 34 62 94zM324 664q-15 16 -77.5 75t-79.5 73q11 9 16 19q46 -31 141 -82q80 41 140 82q5 -8 16 -19q-17 -14 -79.5 -73.5t-76.5 -74.5z" />
    <glyph glyph-name="zcaron" unicode="&#x17e;" horiz-adv-x="519" 
d="M458 148l17 -3q-7 -29 -14 -82t-7 -76q-32 13 -240 13q-143 0 -188 -11q51 59 154.5 209.5t142.5 218.5h-38q-172 0 -205 -105l-18 4q18 90 18 116q0 2 -3 38q20 -4 77 -8q62 -2 95 -2q183 0 239 9q-59 -75 -154 -214.5t-136 -214.5h55q173 0 205 108zM260 520
q-15 16 -77.5 75t-79.5 73q11 9 16 19q46 -31 141 -82q80 41 140 82q5 -8 16 -19q-17 -14 -79.5 -73.5t-76.5 -74.5z" />
    <glyph glyph-name="florin" unicode="&#x192;" 
d="M201 343h-16q-30 0 -78 -6q13 19 26 55q27 -4 73 -4q34 149 70 176q27 20 88 40t96 20q47 0 85 -14q-34 -56 -53 -119q-7 2 -19 2q0 25 -2 39q-2 19 -18 31.5t-39 12.5q-28 0 -42 -15q-26 -29 -52 -173h29q44 0 76 5q-16 -23 -24 -56q-36 6 -62 6h-26q-75 -431 -115 -529
q-24 -11 -85.5 -36t-68.5 -28q-2 4 -5 9.5t-4 6.5q52 35 95 220q19 83 71 357z" />
    <glyph glyph-name="circumflex" unicode="&#x2c6;" horiz-adv-x="370" 
d="M44 520q-5 10 -16 19q17 14 79.5 73t77.5 75q15 -16 77.5 -75.5t78.5 -72.5q-11 -9 -16 -19q-60 41 -140 82q-84 -44 -141 -82z" />
    <glyph glyph-name="caron" unicode="&#x2c7;" horiz-adv-x="370" 
d="M185 520q-15 16 -77.5 75t-79.5 73q11 9 16 19q46 -31 141 -82q80 41 140 82q5 -8 16 -19q-17 -14 -79.5 -73.5t-76.5 -74.5z" />
    <glyph glyph-name="uni02C9" unicode="&#x2c9;" horiz-adv-x="370" 
d="M47 585q18 34 24 63q32 -7 141 -7q41 0 75 2.5t35 2.5q-17 -27 -25 -59q-54 4 -85 4q-110 0 -165 -6z" />
    <glyph glyph-name="breve" unicode="&#x2d8;" horiz-adv-x="370" 
d="M185 520q-31 0 -57.5 14.5t-45 41t-26 40.5t-17.5 37q8 4 21 15q55 -82 126 -82q67 0 125 82q13 -11 20 -15q-9 -19 -13 -28t-18.5 -32.5t-28.5 -36.5t-37 -24.5t-49 -11.5z" />
    <glyph glyph-name="dotaccent" unicode="&#x2d9;" horiz-adv-x="370" 
d="M186 520q-27 32 -68 64q39 33 68 68q44 -46 66 -61q-42 -40 -66 -71z" />
    <glyph glyph-name="ring" unicode="&#x2da;" horiz-adv-x="370" 
d="M185 528q-36 0 -62.5 26.5t-26.5 61.5t26.5 61.5t62.5 26.5q35 0 61.5 -26.5t26.5 -61.5t-26.5 -61.5t-61.5 -26.5zM137 616q0 -19 14.5 -33t33.5 -14t33 14t14 33t-14 33t-33 14q-20 0 -34 -14t-14 -33z" />
    <glyph glyph-name="ogonek" unicode="&#x2db;" horiz-adv-x="370" 
d="M282 -120l13 -20q-59 -56 -110 -56q-40 0 -63 27t-23 67q0 10 2.5 19.5t6 17t10 15.5t11 13t13.5 12t13 9.5t13 8.5t10 7h32q-1 -2 -9 -12t-14.5 -19.5t-12 -26.5t-5.5 -35q0 -22 13 -35t34 -13q40 0 66 21z" />
    <glyph glyph-name="tilde" unicode="&#x2dc;" horiz-adv-x="370" 
d="M49 572q-5 9 -16 19l9 11q9 10 13 14t14 13.5t17.5 14.5t18 11.5t20.5 9t21 2.5q22 0 60 -22q36 -23 56 -23q17 0 34.5 13.5t22.5 24.5q4 -6 18 -18q-48 -77 -108 -77q-26 0 -63.5 19t-57.5 19q-10 0 -20.5 -4t-16.5 -8.5t-13.5 -11t-8.5 -7.5z" />
    <glyph glyph-name="hungarumlaut" unicode="&#x2dd;" horiz-adv-x="370" 
d="M26 520q-10 12 -17 17q22 22 75 85t73 90q27 -39 56 -66q-11 -8 -56.5 -37.5t-85 -56t-45.5 -32.5zM185 520q-7 11 -17 17q22 21 75 84t74 91q27 -39 56 -66q-9 -6 -56 -37t-86 -57t-46 -32z" />
    <glyph glyph-name="uni03A9" unicode="&#x3a9;" horiz-adv-x="750" 
d="M715 137l-27 -137h-248l-7 21l19 27q20 28 26 37.5t23.5 37t25 46.5t18 46.5t14.5 54.5t4 55q-1 128 -54.5 188t-134.5 60q-85 0 -136 -61.5t-51 -191.5q0 -55 21.5 -113.5t40.5 -89.5t56 -83q6 -9 9 -13l-7 -21h-248l-24 137l25 1q17 -42 32 -55t47 -13h103
q-33 23 -55.5 42t-51.5 51.5t-44.5 74t-15.5 89.5q0 125 85 201t216 76q134 0 216 -72.5t82 -196.5q0 -42 -15 -81t-43 -73t-53 -58t-61 -53h110q32 0 46 12t30 56z" />
    <glyph glyph-name="uni03BC" unicode="&#x3bc;" horiz-adv-x="593" 
d="M537 -4h-22q-114 0 -132 -9q3 21 3 103q-81 -57 -121 -103q-47 0 -69 9q0 -220 7 -224q-79 0 -127 -13q4 53 11.5 259.5t7.5 259.5q0 109 -5.5 140t-31.5 37v6h39q87 0 118 9q-15 -95 -15 -226q0 -97 19 -124q22 -33 71 -33q47 0 82 30q19 17 19 134q0 140 -5.5 168
t-37.5 36v6h39q98 0 121 9q-3 -25 -7.5 -129t-4.5 -175q0 -91 6.5 -125.5t34.5 -38.5v-6z" />
    <glyph glyph-name="pi" unicode="&#x3c0;" horiz-adv-x="570" 
d="M518 426l24 -9q-11 -64 -37 -92q-25 -5 -66 -5q-6 -54 -4 -195q0 -78 43 -78q20 0 46 24l13 -21q-40 -61 -108 -61q-91 0 -91 114q0 95 10 219q-63 2 -150 2v-14q0 -90 -14 -163t-27 -103t-23 -39q-36 -13 -58 -16l-7 17q47 55 68.5 147.5t21.5 172.5q-43 0 -68.5 -9.5
t-57.5 -32.5l-15 23q37 46 57 60q43 31 111 30q219 -3 273 -3q22 0 35 6.5t24 25.5z" />
    <glyph glyph-name="endash" unicode="&#x2013;" 
d="M419 223h-216q-97 0 -153 -8q20 35 31 88q27 -6 122 -10h216q61 0 113 8q-23 -39 -33 -83q-67 5 -80 5z" />
    <glyph glyph-name="emdash" unicode="&#x2014;" horiz-adv-x="963" 
d="M800 223h-597q-97 0 -153 -8q20 35 31 88q27 -6 122 -10h597q61 0 113 8q-23 -39 -33 -83q-68 5 -80 5z" />
    <glyph glyph-name="quoteleft" unicode="&#x2018;" horiz-adv-x="278" 
d="M110 351q-1 1 -7 8t-9 11.5t-9 14t-9 18t-5.5 20.5t-2.5 25q0 71 77 138q11 10 23 19t20.5 14.5t9.5 6.5q6 -9 15 -18q-61 -44 -61 -91q0 -51 55 -90q-60 -37 -97 -76z" />
    <glyph glyph-name="quoteright" unicode="&#x2019;" horiz-adv-x="278" 
d="M135 388q-17 -15 -53 -39q-6 9 -14 17q60 43 60 91q0 56 -55 90q64 41 97 76l8 -9q8 -10 12 -16t10.5 -18t9.5 -25.5t3 -28.5q0 -68 -78 -138z" />
    <glyph glyph-name="quotesinglbase" unicode="&#x201a;" horiz-adv-x="278" 
d="M54 -129q-6 9 -14 17q60 43 60 91q0 56 -55 90q64 41 97 76q1 -1 6 -6.5t7.5 -9l7.5 -10.5t8.5 -14t7 -16t5 -19.5t1.5 -21.5q0 -70 -78 -137q-26 -22 -53 -40z" />
    <glyph glyph-name="quotedblleft" unicode="&#x201c;" horiz-adv-x="463" 
d="M301 349l-5 6q-6 6 -8.5 9.5l-7.5 10.5t-8 13.5t-6.5 15.5t-5 19.5t-1.5 21.5q0 69 77 138q11 10 22.5 19t20.5 14.5t10 6.5q7 -10 15 -17q-1 -1 -6 -5t-7.5 -5.5t-7.5 -6t-8 -7.5t-8 -8.5t-8 -10t-6.5 -10.5t-5 -11.5t-3 -12.5t-1.5 -14q0 -52 55 -91q-59 -37 -97 -75z
M108 349l-6 6q-5 6 -7.5 9.5l-7.5 10.5t-8 13.5t-6.5 15.5t-5 19.5t-1.5 21.5q0 69 77 138q11 10 22.5 19t20.5 14.5t10 6.5q7 -10 15 -17q-1 -1 -6 -5t-7.5 -5.5t-7.5 -6t-8 -7.5t-8 -8.5t-8 -10t-6.5 -10.5t-5 -11.5t-3 -12.5t-1.5 -14q0 -52 55 -91q-59 -37 -97 -75z" />
    <glyph glyph-name="quotedblright" unicode="&#x201d;" horiz-adv-x="463" 
d="M77 349q-6 10 -15 17q61 44 61 91q0 56 -55 90q64 41 97 76l8 -9q8 -10 12 -16t10.5 -18t9.5 -25.5t3 -28.5q0 -68 -78 -138q-17 -15 -53 -39zM270 349q-6 10 -15 17q61 44 61 91q0 56 -55 90q64 41 97 76l8 -9q8 -10 12 -16t10.5 -18t9.5 -25.5t3 -28.5q0 -68 -78 -138
q-17 -15 -53 -39z" />
    <glyph glyph-name="quotedblbase" unicode="&#x201e;" horiz-adv-x="463" 
d="M54 -129q-6 9 -14 17q60 43 60 91q0 56 -55 90q64 41 97 76q1 -1 6 -6.5t7.5 -9l7.5 -10.5t8.5 -14t7 -16t5 -19.5t1.5 -21.5q0 -70 -78 -137q-26 -22 -53 -40zM247 -129q-6 9 -14 17q60 43 60 91q0 56 -55 90q64 41 97 76q1 -1 6 -6.5t7.5 -9l7.5 -10.5t8.5 -14t7 -16
t5 -19.5t1.5 -21.5q0 -70 -78 -137q-26 -22 -53 -40z" />
    <glyph glyph-name="dagger" unicode="&#x2020;" 
d="M343 -4h-18q-57 0 -102 -9q23 74 23 368q-144 0 -179 -17q18 45 24 94q26 -7 79 -7h75q0 135 -11 191q22 -2 34 -2q44 0 80 9q-14 -55 -14 -198q147 0 185 13q-21 -48 -29 -91q-38 8 -73 8h-83v-122q0 -193 9 -237z" />
    <glyph glyph-name="daggerdbl" unicode="&#x2021;" 
d="M339 -4h-19q-62 0 -102 -9q15 37 22 173q-134 0 -166 -16q19 50 23 93q26 -7 79 -7h64v166q-134 0 -166 -16q19 50 23 93q20 -5 40 -6q13 -1 39 -1h64q0 111 -11 153l18 -3q12 -2 15 -2q47 0 81 9q-14 -50 -14 -157q129 0 163 13q-19 -43 -30 -91q-38 8 -73 8h-60v-166
q129 0 163 13q-19 -43 -30 -91q-38 8 -73 8h-60q0 -121 10 -164z" />
    <glyph glyph-name="bullet" unicode="&#x2022;" horiz-adv-x="500" 
d="M250 124q-74 0 -127.5 53t-53.5 127q0 75 53 128.5t128 53.5t128 -53.5t53 -128.5q0 -74 -53.5 -127t-127.5 -53z" />
    <glyph glyph-name="ellipsis" unicode="&#x2026;" horiz-adv-x="963" 
d="M157 0q-46 61 -79 85q48 35 85 75q36 -49 75 -83q-36 -30 -81 -77zM478 0q-46 61 -79 85q48 35 85 75q36 -49 75 -83q-36 -30 -81 -77zM799 0q-46 61 -79 85q48 35 85 75q36 -49 75 -83q-23 -19 -81 -77z" />
    <glyph glyph-name="perthousand" unicode="&#x2030;" horiz-adv-x="1333" 
d="M629 177q0 -81 22 -115.5t71 -34.5q24 0 35 10q24 22 24 122q0 84 -19 124.5t-66 40.5q-30 0 -41 -15t-18.5 -55.5t-7.5 -76.5zM264 -13l397 618h58l-397 -618h-58zM200 423q0 -81 22 -115.5t71 -34.5q24 0 35 10q24 22 24 122q0 84 -19 124.5t-66 40.5q-30 0 -41 -15
t-18.5 -55.5t-7.5 -76.5zM685 -13q-63 0 -97 40q-34 39 -34 124q0 39 9.5 85.5t31.5 68.5q21 21 58 37.5t76 16.5q34 0 58.5 -10.5t37.5 -25.5t20.5 -40t9 -45.5t1.5 -50.5q0 -115 -62 -162q-51 -38 -109 -38zM256 233q-63 0 -97 40q-34 39 -34 124q0 39 9.5 85.5t31.5 68.5
q21 21 58 37.5t76 16.5q34 0 58.5 -10.5t37.5 -25.5t20.5 -40t9 -45.5t1.5 -50.5q0 -115 -62 -162q-51 -38 -109 -38zM1038 -13q-63 0 -97 40q-34 39 -34 124q0 39 9.5 85.5t31.5 68.5q21 21 58 37.5t76 16.5q34 0 58.5 -10.5t37.5 -25.5t20.5 -40t9 -45.5t1.5 -50.5
q0 -115 -62 -162q-51 -38 -109 -38zM982 177q0 -81 22 -115.5t71 -34.5q24 0 35 10q24 22 24 122q0 84 -19 124.5t-66 40.5q-31 0 -41 -15q-11 -15 -18.5 -55.5t-7.5 -76.5z" />
    <glyph glyph-name="guilsinglleft" unicode="&#x2039;" horiz-adv-x="278" 
d="M214 63q-16 20 -86 101t-88 100q51 50 173 206q2 -2 16 -10q-3 -8 -24.5 -56.5t-38 -88t-19.5 -48.5q5 -12 24.5 -58t38.5 -91l19 -44q-5 -3 -15 -11z" />
    <glyph glyph-name="guilsinglright" unicode="&#x203a;" horiz-adv-x="278" 
d="M63 63q-4 4 -14 12q15 30 81 192q-3 10 -81 193q3 2 8 5t7 5q144 -178 174 -206q-56 -58 -175 -201z" />
    <glyph glyph-name="fraction" unicode="&#x2044;" horiz-adv-x="271" 
d="M-78 0l298 610h58l-298 -610h-58z" />
    <glyph glyph-name="Euro" unicode="&#x20ac;" 
d="M543 127q-34 -32 -53.5 -58.5t-44.5 -69.5q-36 -12 -85 -12q-102 0 -166.5 68.5t-79.5 183.5q-73 -2 -74 -2q4 13 11 44q8 -1 29 -1.5t31 -0.5q0 4 -0.5 12.5t-0.5 12.5q0 12 2 36q-70 -2 -72 -2q3 10 11 45q26 -2 66 -3q13 69 50 117.5t82.5 69.5t80 29.5t62.5 8.5
q41 0 82 -7.5t42 -7.5h14q-30 -69 -30 -138q0 -3 0.5 -10.5t0.5 -11.5h-19q0 40 -12 63.5t-42 35.5q-42 18 -95 18q-39 0 -65 -18q-25 -17 -40 -60.5t-20 -89.5h28q75 0 199 4q-13 -35 -14 -45q-26 3 -185 3h-30q0 -25 4 -63h16q134 0 176 3q-13 -35 -14 -44q-66 3 -162 3
h-10q33 -155 178 -155q67 0 118 43q3 3 9.5 9t9.5 9q1 -3 12 -19z" />
    <glyph glyph-name="afii61289" unicode="&#x2113;" horiz-adv-x="415" 
d="M378 116l19 -18q-65 -110 -172 -110q-66 0 -102 36q-36 39 -36 132v57l-61 -40l-12 25l72 52v111q0 105 10.5 153t41.5 82q39 46 95 46q46 0 70 -35t24 -85q0 -71 -38 -132t-112 -126v-69q0 -82 22 -116.5t67 -34.5q59 0 112 72zM177 415v-107q92 103 92 212
q0 37 -11.5 64t-33.5 27q-28 0 -37.5 -43.5t-9.5 -152.5z" />
    <glyph glyph-name="trademark" unicode="&#x2122;" horiz-adv-x="611" 
d="M54 336v17q18 2 23.5 2.5t15 5t12 14t2.5 25.5v191q-36 -7 -49.5 -21.5t-28.5 -61.5h-18l5 102h234l5 -102h-18q-15 47 -28.5 61.5t-49.5 21.5v-191q0 -29 8 -36.5t40 -10.5v-17h-153zM268 336v17q16 3 22 4.5t13 6t9 13t2 23.5v156q0 23 -5.5 29t-28.5 6v19h100l55 -181
h2l63 181h108v-19q-31 -4 -36 -11q-6 -8 -6 -30v-150q0 -30 6.5 -37t30.5 -10v-17h-124v17q15 3 20.5 5.5t10 12t4.5 29.5v184h-2l-84 -248h-16l-73 239h-2v-175q0 -20 3.5 -29.5t8 -12t17.5 -5.5v-17h-98z" />
    <glyph glyph-name="Omega" unicode="&#x2126;" horiz-adv-x="750" 
d="M715 137l-27 -137h-248l-7 21l19 27q20 28 26 37.5t23.5 37t25 46.5t18 46.5t14.5 54.5t4 55q-1 128 -54.5 188t-134.5 60q-85 0 -136 -61.5t-51 -191.5q0 -55 21.5 -113.5t40.5 -89.5t56 -83q6 -9 9 -13l-7 -21h-248l-24 137l25 1q17 -42 32 -55t47 -13h103
q-33 23 -55.5 42t-51.5 51.5t-44.5 74t-15.5 89.5q0 125 85 201t216 76q134 0 216 -72.5t82 -196.5q0 -42 -15 -81t-43 -73t-53 -58t-61 -53h110q32 0 46 12t30 56z" />
    <glyph glyph-name="estimated" unicode="&#x212e;" horiz-adv-x="744" 
d="M714 287h-555q-4 0 -4 -4v-168q0 -11 7 -19q88 -91 210 -91q132 0 221 102h49q-47 -55 -118.5 -87t-152.5 -32q-142 0 -242 90t-100 217q0 128 100 218.5t242 90.5t242.5 -90.5t100.5 -218.5v-8zM588 309v169q0 12 -8 20q-89 87 -208 87q-121 0 -209 -90q-8 -8 -8 -21
v-165q0 -6 4 -6h426q3 0 3 6z" />
    <glyph glyph-name="partialdiff" unicode="&#x2202;" horiz-adv-x="535" 
d="M259 381h1q38 0 75.5 -17t58.5 -48q8 56 8 92q2 79 -26 138q-16 32 -48.5 55.5t-69.5 23.5q-66 0 -142 -61q-14 -1 -29 24t-6 42q68 38 144 38q134 0 210 -124q50 -82 50 -200q0 -133 -49 -221q-73 -135 -208 -135q-85 0 -135.5 50t-50.5 133q0 88 58 146q62 64 159 64z
M286 341h-1q-66 0 -104 -50q-42 -57 -42 -156q0 -50 24.5 -82.5t66.5 -32.5q66 0 109 87q31 63 48 170q-12 23 -40 43.5t-61 20.5z" />
    <glyph glyph-name="Delta" unicode="&#x2206;" horiz-adv-x="639" 
d="M603 0h-569v26l258 566l46 12l265 -578v-26zM483 47l-198 444l-193 -444h391z" />
    <glyph glyph-name="product" unicode="&#x220f;" horiz-adv-x="690" 
d="M662 604v-26q-62 -4 -75 -14.5t-13 -51.5v-484q0 -46 13.5 -58t73.5 -16v-26h-267v26q58 4 70 14.5t12 59.5v512q0 20 -6 24.5t-27 4.5h-198q-21 0 -26.5 -4.5t-5.5 -21.5v-515q0 -48 10.5 -59t64.5 -15v-26h-259v26q59 5 72.5 16.5t13.5 57.5v484q0 41 -13.5 51.5
t-75.5 14.5v26h636z" />
    <glyph glyph-name="summation" unicode="&#x2211;" horiz-adv-x="556" 
d="M532 107l-44 -184h-462v26l216 295l-210 333v27h455q2 -32 12 -156l-27 -6q-13 67 -36 100q-11 17 -29.5 23.5t-70.5 6.5h-183l172 -273l-215 -298h256q66 0 86 16t53 98z" />
    <glyph glyph-name="minus" unicode="&#x2212;" horiz-adv-x="963" 
d="M516 193h-70q-140 0 -195 -6q1 13 1 40q0 7 -0.5 21t-0.5 20q46 -5 195 -5h70q155 0 195 5q0 -5 -0.5 -19.5t-0.5 -21.5t0.5 -21t0.5 -19q-47 6 -195 6z" />
    <glyph glyph-name="uni2215" unicode="&#x2215;" horiz-adv-x="271" 
d="M-78 0l298 610h58l-298 -610h-58z" />
    <glyph glyph-name="uni2219" unicode="&#x2219;" 
d="M289 220q-45 50 -90 82q41 32 89 89q45 -50 86 -80q-51 -47 -85 -91z" />
    <glyph glyph-name="radical" unicode="&#x221a;" horiz-adv-x="536" 
d="M523 767l-162 -892l-23 -12l-213 477l-83 -41l-12 32l159 77l161 -377h2l131 745z" />
    <glyph glyph-name="infinity" unicode="&#x221e;" horiz-adv-x="711" 
d="M666 247v-1q0 -68 -43 -110t-101 -42q-81 0 -166 106q-43 -52 -81.5 -79t-88.5 -27q-58 0 -100 42t-42 106q0 66 42.5 108.5t106.5 42.5q83 0 167 -104q2 2 12.5 14t13.5 15l13.5 13.5t15 14t15 12t17 12t17 9.5t20 8t20.5 4t23 2q61 -1 100 -41t39 -105zM192 149h2
q8 0 16 2t14.5 3.5t15 7t13.5 8.5t14 10.5t12.5 10.5t12.5 13t11 12t11.5 12.5t10.5 11.5q-20 26 -29.5 37.5t-28.5 29t-37.5 25t-40.5 7.5q-39 0 -63 -28t-24 -70q0 -38 25.5 -65t64.5 -27zM521 339h-1q-16 0 -31.5 -5.5t-32 -19.5t-24 -20.5t-25 -27t-18.5 -21.5
q45 -53 73.5 -74.5t61.5 -21.5q38 0 61 28.5t23 64.5q0 44 -24 70.5t-63 26.5z" />
    <glyph glyph-name="integral" unicode="&#x222b;" horiz-adv-x="363" 
d="M153 7l-18 351q-5 89 2 157t21 108.5t35.5 66.5t43.5 35t47 9q22 0 41.5 -12t19.5 -32q0 -21 -12.5 -32.5t-30.5 -11.5q-17 0 -30 24t-22 24q-41 0 -35 -146l17 -335q20 -394 -151 -394q-25 0 -43 13.5t-18 33.5q-1 18 15.5 32t36.5 14q14 0 26 -26t21 -26q20 0 29 40
t5 107z" />
    <glyph glyph-name="approxequal" unicode="&#x2248;" horiz-adv-x="534" 
d="M456 387l38 -37q-54 -87 -128 -87q-20 0 -38.5 5t-31.5 11.5t-40 20.5q-54 30 -85 30q-49 0 -96 -66l-38 37q22 39 59.5 63t78.5 24q42 0 103 -34q19 -11 24.5 -14t18.5 -9t22.5 -7.5t21.5 -1.5q48 0 91 65zM456 224l38 -38q-55 -87 -129 -87q-40 0 -109 37
q-52 30 -85 30q-30 0 -51.5 -17t-44.5 -49l-38 37q22 39 59.5 63t78.5 24q9 0 18 -1t18 -3.5t14.5 -4t15 -6t12.5 -5.5t13.5 -7t11.5 -6q5 -3 16.5 -9.5t17 -9.5t15 -7t18.5 -5.5t19 -1.5q27 0 48 15.5t44 50.5z" />
    <glyph glyph-name="notequal" unicode="&#x2260;" horiz-adv-x="534" 
d="M386 446l-39 -83h140v-59h-165l-58 -125h223v-58h-249l-50 -108l-47 22l40 86h-135v58h160l58 125h-218v59h243l50 105z" />
    <glyph glyph-name="lessequal" unicode="&#x2264;" horiz-adv-x="534" 
d="M485 88l-434 200v62l434 199v-66l-370 -163v-1l370 -164v-67zM487 -5h-441v59h441v-59z" />
    <glyph glyph-name="greaterequal" unicode="&#x2265;" horiz-adv-x="534" 
d="M51 549l434 -199v-63l-434 -199v67l370 163v2l-370 163v66zM485 -5h-438v59h438v-59z" />
    <glyph glyph-name="lozenge" unicode="&#x25ca;" horiz-adv-x="551" 
d="M508 287l-198 -354h-69l-198 354l200 356h67zM439 287l-161 295h-3l-163 -294l163 -296h3z" />
    </font>
</defs>
</svg>
